<mxfile host="65bd71144e">
    <diagram id="M4CjQaSuYDCpxTM-Mohn" name="Page-1">
        <mxGraphModel dx="766" dy="497" grid="1" gridSize="10" guides="1" tooltips="1" connect="1" arrows="1" fold="1" page="1" pageScale="1" pageWidth="850" pageHeight="1100" math="0" shadow="0">
            <root>
                <mxCell id="0"/>
                <mxCell id="1" parent="0"/>
                <mxCell id="2" value="&lt;font style=&quot;font-size: 24px;&quot;&gt;Quordle&lt;/font&gt;" style="text;strokeColor=none;align=center;fillColor=none;html=1;verticalAlign=middle;whiteSpace=wrap;rounded=0;" parent="1" vertex="1">
                    <mxGeometry x="360" y="20" width="130" height="50" as="geometry"/>
                </mxCell>
                <mxCell id="3" value="" style="shape=table;startSize=0;container=1;collapsible=0;childLayout=tableLayout;fontSize=24;" parent="1" vertex="1">
                    <mxGeometry x="200" y="120" width="200" height="320" as="geometry"/>
                </mxCell>
                <mxCell id="4" value="" style="shape=tableRow;horizontal=0;startSize=0;swimlaneHead=0;swimlaneBody=0;top=0;left=0;bottom=0;right=0;collapsible=0;dropTarget=0;fillColor=none;points=[[0,0.5],[1,0.5]];portConstraint=eastwest;fontSize=24;" parent="3" vertex="1">
                    <mxGeometry width="200" height="35" as="geometry"/>
                </mxCell>
                <mxCell id="5" value="A" style="shape=partialRectangle;html=1;whiteSpace=wrap;connectable=0;overflow=hidden;fillColor=#e3c800;top=0;left=0;bottom=0;right=0;pointerEvents=1;fontSize=24;fontColor=#000000;strokeColor=#B09500;" parent="4" vertex="1">
                    <mxGeometry width="40" height="35" as="geometry">
                        <mxRectangle width="40" height="35" as="alternateBounds"/>
                    </mxGeometry>
                </mxCell>
                <mxCell id="6" value="R" style="shape=partialRectangle;html=1;whiteSpace=wrap;connectable=0;overflow=hidden;fillColor=#e3c800;top=0;left=0;bottom=0;right=0;pointerEvents=1;fontSize=24;fontColor=#000000;strokeColor=#B09500;" parent="4" vertex="1">
                    <mxGeometry x="40" width="40" height="35" as="geometry">
                        <mxRectangle width="40" height="35" as="alternateBounds"/>
                    </mxGeometry>
                </mxCell>
                <mxCell id="7" value="I" style="shape=partialRectangle;html=1;whiteSpace=wrap;connectable=0;overflow=hidden;fillColor=#647687;top=0;left=0;bottom=0;right=0;pointerEvents=1;fontSize=24;fontColor=#ffffff;strokeColor=#314354;" parent="4" vertex="1">
                    <mxGeometry x="80" width="40" height="35" as="geometry">
                        <mxRectangle width="40" height="35" as="alternateBounds"/>
                    </mxGeometry>
                </mxCell>
                <mxCell id="8" value="S" style="shape=partialRectangle;html=1;whiteSpace=wrap;connectable=0;overflow=hidden;fillColor=#e3c800;top=0;left=0;bottom=0;right=0;pointerEvents=1;fontSize=24;fontColor=#000000;strokeColor=#B09500;" parent="4" vertex="1">
                    <mxGeometry x="120" width="40" height="35" as="geometry">
                        <mxRectangle width="40" height="35" as="alternateBounds"/>
                    </mxGeometry>
                </mxCell>
                <mxCell id="9" value="E" style="shape=partialRectangle;html=1;whiteSpace=wrap;connectable=0;overflow=hidden;fillColor=#647687;top=0;left=0;bottom=0;right=0;pointerEvents=1;fontSize=24;fontColor=#ffffff;strokeColor=#314354;" parent="4" vertex="1">
                    <mxGeometry x="160" width="40" height="35" as="geometry">
                        <mxRectangle width="40" height="35" as="alternateBounds"/>
                    </mxGeometry>
                </mxCell>
                <mxCell id="10" value="" style="shape=tableRow;horizontal=0;startSize=0;swimlaneHead=0;swimlaneBody=0;top=0;left=0;bottom=0;right=0;collapsible=0;dropTarget=0;fillColor=none;points=[[0,0.5],[1,0.5]];portConstraint=eastwest;fontSize=24;" parent="3" vertex="1">
                    <mxGeometry y="35" width="200" height="36" as="geometry"/>
                </mxCell>
                <mxCell id="11" value="C" style="shape=partialRectangle;html=1;whiteSpace=wrap;connectable=0;overflow=hidden;fillColor=#647687;top=0;left=0;bottom=0;right=0;pointerEvents=1;fontSize=24;fontColor=#ffffff;strokeColor=#314354;" parent="10" vertex="1">
                    <mxGeometry width="40" height="36" as="geometry">
                        <mxRectangle width="40" height="36" as="alternateBounds"/>
                    </mxGeometry>
                </mxCell>
                <mxCell id="12" value="L" style="shape=partialRectangle;html=1;whiteSpace=wrap;connectable=0;overflow=hidden;fillColor=#647687;top=0;left=0;bottom=0;right=0;pointerEvents=1;fontSize=24;fontColor=#ffffff;strokeColor=#314354;" parent="10" vertex="1">
                    <mxGeometry x="40" width="40" height="36" as="geometry">
                        <mxRectangle width="40" height="36" as="alternateBounds"/>
                    </mxGeometry>
                </mxCell>
                <mxCell id="13" value="O" style="shape=partialRectangle;html=1;whiteSpace=wrap;connectable=0;overflow=hidden;fillColor=#647687;top=0;left=0;bottom=0;right=0;pointerEvents=1;fontSize=24;fontColor=#ffffff;strokeColor=#314354;" parent="10" vertex="1">
                    <mxGeometry x="80" width="40" height="36" as="geometry">
                        <mxRectangle width="40" height="36" as="alternateBounds"/>
                    </mxGeometry>
                </mxCell>
                <mxCell id="14" value="U" style="shape=partialRectangle;html=1;whiteSpace=wrap;connectable=0;overflow=hidden;fillColor=#647687;top=0;left=0;bottom=0;right=0;pointerEvents=1;fontSize=24;fontColor=#ffffff;strokeColor=#314354;" parent="10" vertex="1">
                    <mxGeometry x="120" width="40" height="36" as="geometry">
                        <mxRectangle width="40" height="36" as="alternateBounds"/>
                    </mxGeometry>
                </mxCell>
                <mxCell id="15" value="T" style="shape=partialRectangle;html=1;whiteSpace=wrap;connectable=0;overflow=hidden;fillColor=#647687;top=0;left=0;bottom=0;right=0;pointerEvents=1;fontSize=24;fontColor=#ffffff;strokeColor=#314354;" parent="10" vertex="1">
                    <mxGeometry x="160" width="40" height="36" as="geometry">
                        <mxRectangle width="40" height="36" as="alternateBounds"/>
                    </mxGeometry>
                </mxCell>
                <mxCell id="16" value="" style="shape=tableRow;horizontal=0;startSize=0;swimlaneHead=0;swimlaneBody=0;top=0;left=0;bottom=0;right=0;collapsible=0;dropTarget=0;fillColor=none;points=[[0,0.5],[1,0.5]];portConstraint=eastwest;fontSize=24;" parent="3" vertex="1">
                    <mxGeometry y="71" width="200" height="36" as="geometry"/>
                </mxCell>
                <mxCell id="17" value="C" style="shape=partialRectangle;html=1;whiteSpace=wrap;connectable=0;overflow=hidden;fillColor=#647687;top=0;left=0;bottom=0;right=0;pointerEvents=1;fontSize=24;fontColor=#ffffff;strokeColor=#314354;" parent="16" vertex="1">
                    <mxGeometry width="40" height="36" as="geometry">
                        <mxRectangle width="40" height="36" as="alternateBounds"/>
                    </mxGeometry>
                </mxCell>
                <mxCell id="18" value="A" style="shape=partialRectangle;html=1;whiteSpace=wrap;connectable=0;overflow=hidden;fillColor=#e3c800;top=0;left=0;bottom=0;right=0;pointerEvents=1;fontSize=24;fontColor=#000000;strokeColor=#B09500;" parent="16" vertex="1">
                    <mxGeometry x="40" width="40" height="36" as="geometry">
                        <mxRectangle width="40" height="36" as="alternateBounds"/>
                    </mxGeometry>
                </mxCell>
                <mxCell id="19" value="R" style="shape=partialRectangle;html=1;whiteSpace=wrap;connectable=0;overflow=hidden;fillColor=#60a917;top=0;left=0;bottom=0;right=0;pointerEvents=1;fontSize=24;fontColor=#ffffff;strokeColor=#2D7600;" parent="16" vertex="1">
                    <mxGeometry x="80" width="40" height="36" as="geometry">
                        <mxRectangle width="40" height="36" as="alternateBounds"/>
                    </mxGeometry>
                </mxCell>
                <mxCell id="20" value="V" style="shape=partialRectangle;html=1;whiteSpace=wrap;connectable=0;overflow=hidden;fillColor=#647687;top=0;left=0;bottom=0;right=0;pointerEvents=1;fontSize=24;fontColor=#ffffff;strokeColor=#314354;" parent="16" vertex="1">
                    <mxGeometry x="120" width="40" height="36" as="geometry">
                        <mxRectangle width="40" height="36" as="alternateBounds"/>
                    </mxGeometry>
                </mxCell>
                <mxCell id="21" value="E" style="shape=partialRectangle;html=1;whiteSpace=wrap;connectable=0;overflow=hidden;fillColor=#647687;top=0;left=0;bottom=0;right=0;pointerEvents=1;fontSize=24;fontColor=#ffffff;strokeColor=#314354;" parent="16" vertex="1">
                    <mxGeometry x="160" width="40" height="36" as="geometry">
                        <mxRectangle width="40" height="36" as="alternateBounds"/>
                    </mxGeometry>
                </mxCell>
                <mxCell id="22" value="" style="shape=tableRow;horizontal=0;startSize=0;swimlaneHead=0;swimlaneBody=0;top=0;left=0;bottom=0;right=0;collapsible=0;dropTarget=0;fillColor=none;points=[[0,0.5],[1,0.5]];portConstraint=eastwest;fontSize=24;" parent="3" vertex="1">
                    <mxGeometry y="107" width="200" height="36" as="geometry"/>
                </mxCell>
                <mxCell id="23" value="S" style="shape=partialRectangle;html=1;whiteSpace=wrap;connectable=0;overflow=hidden;fillColor=#60a917;top=0;left=0;bottom=0;right=0;pointerEvents=1;fontSize=24;fontColor=#ffffff;strokeColor=#2D7600;" parent="22" vertex="1">
                    <mxGeometry width="40" height="36" as="geometry">
                        <mxRectangle width="40" height="36" as="alternateBounds"/>
                    </mxGeometry>
                </mxCell>
                <mxCell id="24" value="T" style="shape=partialRectangle;html=1;whiteSpace=wrap;connectable=0;overflow=hidden;fillColor=#60a917;top=0;left=0;bottom=0;right=0;pointerEvents=1;fontSize=24;fontColor=#ffffff;strokeColor=#2D7600;" parent="22" vertex="1">
                    <mxGeometry x="40" width="40" height="36" as="geometry">
                        <mxRectangle width="40" height="36" as="alternateBounds"/>
                    </mxGeometry>
                </mxCell>
                <mxCell id="25" value="R" style="shape=partialRectangle;html=1;whiteSpace=wrap;connectable=0;overflow=hidden;fillColor=#60a917;top=0;left=0;bottom=0;right=0;pointerEvents=1;fontSize=24;fontColor=#ffffff;strokeColor=#2D7600;" parent="22" vertex="1">
                    <mxGeometry x="80" width="40" height="36" as="geometry">
                        <mxRectangle width="40" height="36" as="alternateBounds"/>
                    </mxGeometry>
                </mxCell>
                <mxCell id="26" value="A" style="shape=partialRectangle;html=1;whiteSpace=wrap;connectable=0;overflow=hidden;fillColor=#60a917;top=0;left=0;bottom=0;right=0;pointerEvents=1;fontSize=24;fontColor=#ffffff;strokeColor=#2D7600;" parent="22" vertex="1">
                    <mxGeometry x="120" width="40" height="36" as="geometry">
                        <mxRectangle width="40" height="36" as="alternateBounds"/>
                    </mxGeometry>
                </mxCell>
                <mxCell id="27" value="W" style="shape=partialRectangle;html=1;whiteSpace=wrap;connectable=0;overflow=hidden;fillColor=#60a917;top=0;left=0;bottom=0;right=0;pointerEvents=1;fontSize=24;fontColor=#ffffff;strokeColor=#2D7600;" parent="22" vertex="1">
                    <mxGeometry x="160" width="40" height="36" as="geometry">
                        <mxRectangle width="40" height="36" as="alternateBounds"/>
                    </mxGeometry>
                </mxCell>
                <mxCell id="28" value="" style="shape=tableRow;horizontal=0;startSize=0;swimlaneHead=0;swimlaneBody=0;top=0;left=0;bottom=0;right=0;collapsible=0;dropTarget=0;fillColor=none;points=[[0,0.5],[1,0.5]];portConstraint=eastwest;fontSize=24;" parent="3" vertex="1">
                    <mxGeometry y="143" width="200" height="34" as="geometry"/>
                </mxCell>
                <mxCell id="29" value="" style="shape=partialRectangle;html=1;whiteSpace=wrap;connectable=0;overflow=hidden;fillColor=none;top=0;left=0;bottom=0;right=0;pointerEvents=1;fontSize=24;" parent="28" vertex="1">
                    <mxGeometry width="40" height="34" as="geometry">
                        <mxRectangle width="40" height="34" as="alternateBounds"/>
                    </mxGeometry>
                </mxCell>
                <mxCell id="30" value="" style="shape=partialRectangle;html=1;whiteSpace=wrap;connectable=0;overflow=hidden;fillColor=none;top=0;left=0;bottom=0;right=0;pointerEvents=1;fontSize=24;" parent="28" vertex="1">
                    <mxGeometry x="40" width="40" height="34" as="geometry">
                        <mxRectangle width="40" height="34" as="alternateBounds"/>
                    </mxGeometry>
                </mxCell>
                <mxCell id="31" value="" style="shape=partialRectangle;html=1;whiteSpace=wrap;connectable=0;overflow=hidden;fillColor=none;top=0;left=0;bottom=0;right=0;pointerEvents=1;fontSize=24;" parent="28" vertex="1">
                    <mxGeometry x="80" width="40" height="34" as="geometry">
                        <mxRectangle width="40" height="34" as="alternateBounds"/>
                    </mxGeometry>
                </mxCell>
                <mxCell id="32" value="" style="shape=partialRectangle;html=1;whiteSpace=wrap;connectable=0;overflow=hidden;fillColor=none;top=0;left=0;bottom=0;right=0;pointerEvents=1;fontSize=24;" parent="28" vertex="1">
                    <mxGeometry x="120" width="40" height="34" as="geometry">
                        <mxRectangle width="40" height="34" as="alternateBounds"/>
                    </mxGeometry>
                </mxCell>
                <mxCell id="33" value="" style="shape=partialRectangle;html=1;whiteSpace=wrap;connectable=0;overflow=hidden;fillColor=none;top=0;left=0;bottom=0;right=0;pointerEvents=1;fontSize=24;" parent="28" vertex="1">
                    <mxGeometry x="160" width="40" height="34" as="geometry">
                        <mxRectangle width="40" height="34" as="alternateBounds"/>
                    </mxGeometry>
                </mxCell>
                <mxCell id="34" value="" style="shape=tableRow;horizontal=0;startSize=0;swimlaneHead=0;swimlaneBody=0;top=0;left=0;bottom=0;right=0;collapsible=0;dropTarget=0;fillColor=none;points=[[0,0.5],[1,0.5]];portConstraint=eastwest;fontSize=24;" parent="3" vertex="1">
                    <mxGeometry y="177" width="200" height="36" as="geometry"/>
                </mxCell>
                <mxCell id="35" value="" style="shape=partialRectangle;html=1;whiteSpace=wrap;connectable=0;overflow=hidden;fillColor=none;top=0;left=0;bottom=0;right=0;pointerEvents=1;fontSize=24;" parent="34" vertex="1">
                    <mxGeometry width="40" height="36" as="geometry">
                        <mxRectangle width="40" height="36" as="alternateBounds"/>
                    </mxGeometry>
                </mxCell>
                <mxCell id="36" value="" style="shape=partialRectangle;html=1;whiteSpace=wrap;connectable=0;overflow=hidden;fillColor=none;top=0;left=0;bottom=0;right=0;pointerEvents=1;fontSize=24;" parent="34" vertex="1">
                    <mxGeometry x="40" width="40" height="36" as="geometry">
                        <mxRectangle width="40" height="36" as="alternateBounds"/>
                    </mxGeometry>
                </mxCell>
                <mxCell id="37" value="" style="shape=partialRectangle;html=1;whiteSpace=wrap;connectable=0;overflow=hidden;fillColor=none;top=0;left=0;bottom=0;right=0;pointerEvents=1;fontSize=24;" parent="34" vertex="1">
                    <mxGeometry x="80" width="40" height="36" as="geometry">
                        <mxRectangle width="40" height="36" as="alternateBounds"/>
                    </mxGeometry>
                </mxCell>
                <mxCell id="38" value="" style="shape=partialRectangle;html=1;whiteSpace=wrap;connectable=0;overflow=hidden;fillColor=none;top=0;left=0;bottom=0;right=0;pointerEvents=1;fontSize=24;" parent="34" vertex="1">
                    <mxGeometry x="120" width="40" height="36" as="geometry">
                        <mxRectangle width="40" height="36" as="alternateBounds"/>
                    </mxGeometry>
                </mxCell>
                <mxCell id="39" value="" style="shape=partialRectangle;html=1;whiteSpace=wrap;connectable=0;overflow=hidden;fillColor=none;top=0;left=0;bottom=0;right=0;pointerEvents=1;fontSize=24;" parent="34" vertex="1">
                    <mxGeometry x="160" width="40" height="36" as="geometry">
                        <mxRectangle width="40" height="36" as="alternateBounds"/>
                    </mxGeometry>
                </mxCell>
                <mxCell id="40" value="" style="shape=tableRow;horizontal=0;startSize=0;swimlaneHead=0;swimlaneBody=0;top=0;left=0;bottom=0;right=0;collapsible=0;dropTarget=0;fillColor=none;points=[[0,0.5],[1,0.5]];portConstraint=eastwest;fontSize=24;" parent="3" vertex="1">
                    <mxGeometry y="213" width="200" height="36" as="geometry"/>
                </mxCell>
                <mxCell id="41" value="" style="shape=partialRectangle;html=1;whiteSpace=wrap;connectable=0;overflow=hidden;fillColor=none;top=0;left=0;bottom=0;right=0;pointerEvents=1;fontSize=24;" parent="40" vertex="1">
                    <mxGeometry width="40" height="36" as="geometry">
                        <mxRectangle width="40" height="36" as="alternateBounds"/>
                    </mxGeometry>
                </mxCell>
                <mxCell id="42" value="" style="shape=partialRectangle;html=1;whiteSpace=wrap;connectable=0;overflow=hidden;fillColor=none;top=0;left=0;bottom=0;right=0;pointerEvents=1;fontSize=24;" parent="40" vertex="1">
                    <mxGeometry x="40" width="40" height="36" as="geometry">
                        <mxRectangle width="40" height="36" as="alternateBounds"/>
                    </mxGeometry>
                </mxCell>
                <mxCell id="43" value="" style="shape=partialRectangle;html=1;whiteSpace=wrap;connectable=0;overflow=hidden;fillColor=none;top=0;left=0;bottom=0;right=0;pointerEvents=1;fontSize=24;" parent="40" vertex="1">
                    <mxGeometry x="80" width="40" height="36" as="geometry">
                        <mxRectangle width="40" height="36" as="alternateBounds"/>
                    </mxGeometry>
                </mxCell>
                <mxCell id="44" value="" style="shape=partialRectangle;html=1;whiteSpace=wrap;connectable=0;overflow=hidden;fillColor=none;top=0;left=0;bottom=0;right=0;pointerEvents=1;fontSize=24;" parent="40" vertex="1">
                    <mxGeometry x="120" width="40" height="36" as="geometry">
                        <mxRectangle width="40" height="36" as="alternateBounds"/>
                    </mxGeometry>
                </mxCell>
                <mxCell id="45" value="" style="shape=partialRectangle;html=1;whiteSpace=wrap;connectable=0;overflow=hidden;fillColor=none;top=0;left=0;bottom=0;right=0;pointerEvents=1;fontSize=24;" parent="40" vertex="1">
                    <mxGeometry x="160" width="40" height="36" as="geometry">
                        <mxRectangle width="40" height="36" as="alternateBounds"/>
                    </mxGeometry>
                </mxCell>
                <mxCell id="46" value="" style="shape=tableRow;horizontal=0;startSize=0;swimlaneHead=0;swimlaneBody=0;top=0;left=0;bottom=0;right=0;collapsible=0;dropTarget=0;fillColor=none;points=[[0,0.5],[1,0.5]];portConstraint=eastwest;fontSize=24;" parent="3" vertex="1">
                    <mxGeometry y="249" width="200" height="36" as="geometry"/>
                </mxCell>
                <mxCell id="47" value="" style="shape=partialRectangle;html=1;whiteSpace=wrap;connectable=0;overflow=hidden;fillColor=none;top=0;left=0;bottom=0;right=0;pointerEvents=1;fontSize=24;" parent="46" vertex="1">
                    <mxGeometry width="40" height="36" as="geometry">
                        <mxRectangle width="40" height="36" as="alternateBounds"/>
                    </mxGeometry>
                </mxCell>
                <mxCell id="48" value="" style="shape=partialRectangle;html=1;whiteSpace=wrap;connectable=0;overflow=hidden;fillColor=none;top=0;left=0;bottom=0;right=0;pointerEvents=1;fontSize=24;" parent="46" vertex="1">
                    <mxGeometry x="40" width="40" height="36" as="geometry">
                        <mxRectangle width="40" height="36" as="alternateBounds"/>
                    </mxGeometry>
                </mxCell>
                <mxCell id="49" value="" style="shape=partialRectangle;html=1;whiteSpace=wrap;connectable=0;overflow=hidden;fillColor=none;top=0;left=0;bottom=0;right=0;pointerEvents=1;fontSize=24;" parent="46" vertex="1">
                    <mxGeometry x="80" width="40" height="36" as="geometry">
                        <mxRectangle width="40" height="36" as="alternateBounds"/>
                    </mxGeometry>
                </mxCell>
                <mxCell id="50" value="" style="shape=partialRectangle;html=1;whiteSpace=wrap;connectable=0;overflow=hidden;fillColor=none;top=0;left=0;bottom=0;right=0;pointerEvents=1;fontSize=24;" parent="46" vertex="1">
                    <mxGeometry x="120" width="40" height="36" as="geometry">
                        <mxRectangle width="40" height="36" as="alternateBounds"/>
                    </mxGeometry>
                </mxCell>
                <mxCell id="51" value="" style="shape=partialRectangle;html=1;whiteSpace=wrap;connectable=0;overflow=hidden;fillColor=none;top=0;left=0;bottom=0;right=0;pointerEvents=1;fontSize=24;" parent="46" vertex="1">
                    <mxGeometry x="160" width="40" height="36" as="geometry">
                        <mxRectangle width="40" height="36" as="alternateBounds"/>
                    </mxGeometry>
                </mxCell>
                <mxCell id="52" value="" style="shape=tableRow;horizontal=0;startSize=0;swimlaneHead=0;swimlaneBody=0;top=0;left=0;bottom=0;right=0;collapsible=0;dropTarget=0;fillColor=none;points=[[0,0.5],[1,0.5]];portConstraint=eastwest;fontSize=24;" parent="3" vertex="1">
                    <mxGeometry y="285" width="200" height="35" as="geometry"/>
                </mxCell>
                <mxCell id="53" value="" style="shape=partialRectangle;html=1;whiteSpace=wrap;connectable=0;overflow=hidden;fillColor=none;top=0;left=0;bottom=0;right=0;pointerEvents=1;fontSize=24;" parent="52" vertex="1">
                    <mxGeometry width="40" height="35" as="geometry">
                        <mxRectangle width="40" height="35" as="alternateBounds"/>
                    </mxGeometry>
                </mxCell>
                <mxCell id="54" value="" style="shape=partialRectangle;html=1;whiteSpace=wrap;connectable=0;overflow=hidden;fillColor=none;top=0;left=0;bottom=0;right=0;pointerEvents=1;fontSize=24;" parent="52" vertex="1">
                    <mxGeometry x="40" width="40" height="35" as="geometry">
                        <mxRectangle width="40" height="35" as="alternateBounds"/>
                    </mxGeometry>
                </mxCell>
                <mxCell id="55" value="" style="shape=partialRectangle;html=1;whiteSpace=wrap;connectable=0;overflow=hidden;fillColor=none;top=0;left=0;bottom=0;right=0;pointerEvents=1;fontSize=24;" parent="52" vertex="1">
                    <mxGeometry x="80" width="40" height="35" as="geometry">
                        <mxRectangle width="40" height="35" as="alternateBounds"/>
                    </mxGeometry>
                </mxCell>
                <mxCell id="56" value="" style="shape=partialRectangle;html=1;whiteSpace=wrap;connectable=0;overflow=hidden;fillColor=none;top=0;left=0;bottom=0;right=0;pointerEvents=1;fontSize=24;" parent="52" vertex="1">
                    <mxGeometry x="120" width="40" height="35" as="geometry">
                        <mxRectangle width="40" height="35" as="alternateBounds"/>
                    </mxGeometry>
                </mxCell>
                <mxCell id="57" value="" style="shape=partialRectangle;html=1;whiteSpace=wrap;connectable=0;overflow=hidden;fillColor=none;top=0;left=0;bottom=0;right=0;pointerEvents=1;fontSize=24;" parent="52" vertex="1">
                    <mxGeometry x="160" width="40" height="35" as="geometry">
                        <mxRectangle width="40" height="35" as="alternateBounds"/>
                    </mxGeometry>
                </mxCell>
                <mxCell id="223" value="" style="shape=table;startSize=0;container=1;collapsible=0;childLayout=tableLayout;fontSize=24;" parent="1" vertex="1">
                    <mxGeometry x="220" y="840" width="400" height="120" as="geometry"/>
                </mxCell>
                <mxCell id="224" value="" style="shape=tableRow;horizontal=0;startSize=0;swimlaneHead=0;swimlaneBody=0;top=0;left=0;bottom=0;right=0;collapsible=0;dropTarget=0;fillColor=none;points=[[0,0.5],[1,0.5]];portConstraint=eastwest;fontSize=24;" parent="223" vertex="1">
                    <mxGeometry width="400" height="40" as="geometry"/>
                </mxCell>
                <mxCell id="225" value="Q" style="shape=partialRectangle;html=1;whiteSpace=wrap;connectable=0;overflow=hidden;fillColor=none;top=0;left=0;bottom=0;right=0;pointerEvents=1;fontSize=24;" parent="224" vertex="1">
                    <mxGeometry width="40" height="40" as="geometry">
                        <mxRectangle width="40" height="40" as="alternateBounds"/>
                    </mxGeometry>
                </mxCell>
                <mxCell id="226" value="W" style="shape=partialRectangle;html=1;whiteSpace=wrap;connectable=0;overflow=hidden;fillColor=none;top=0;left=0;bottom=0;right=0;pointerEvents=1;fontSize=24;" parent="224" vertex="1">
                    <mxGeometry x="40" width="40" height="40" as="geometry">
                        <mxRectangle width="40" height="40" as="alternateBounds"/>
                    </mxGeometry>
                </mxCell>
                <mxCell id="227" value="E" style="shape=partialRectangle;html=1;whiteSpace=wrap;connectable=0;overflow=hidden;fillColor=none;top=0;left=0;bottom=0;right=0;pointerEvents=1;fontSize=24;" parent="224" vertex="1">
                    <mxGeometry x="80" width="40" height="40" as="geometry">
                        <mxRectangle width="40" height="40" as="alternateBounds"/>
                    </mxGeometry>
                </mxCell>
                <mxCell id="228" value="R" style="shape=partialRectangle;html=1;whiteSpace=wrap;connectable=0;overflow=hidden;fillColor=none;top=0;left=0;bottom=0;right=0;pointerEvents=1;fontSize=24;" parent="224" vertex="1">
                    <mxGeometry x="120" width="40" height="40" as="geometry">
                        <mxRectangle width="40" height="40" as="alternateBounds"/>
                    </mxGeometry>
                </mxCell>
                <mxCell id="229" value="T" style="shape=partialRectangle;html=1;whiteSpace=wrap;connectable=0;overflow=hidden;fillColor=none;top=0;left=0;bottom=0;right=0;pointerEvents=1;fontSize=24;" parent="224" vertex="1">
                    <mxGeometry x="160" width="40" height="40" as="geometry">
                        <mxRectangle width="40" height="40" as="alternateBounds"/>
                    </mxGeometry>
                </mxCell>
                <mxCell id="230" value="Y" style="shape=partialRectangle;html=1;whiteSpace=wrap;connectable=0;overflow=hidden;fillColor=none;top=0;left=0;bottom=0;right=0;pointerEvents=1;fontSize=24;" parent="224" vertex="1">
                    <mxGeometry x="200" width="40" height="40" as="geometry">
                        <mxRectangle width="40" height="40" as="alternateBounds"/>
                    </mxGeometry>
                </mxCell>
                <mxCell id="231" value="U" style="shape=partialRectangle;html=1;whiteSpace=wrap;connectable=0;overflow=hidden;fillColor=none;top=0;left=0;bottom=0;right=0;pointerEvents=1;fontSize=24;" parent="224" vertex="1">
                    <mxGeometry x="240" width="40" height="40" as="geometry">
                        <mxRectangle width="40" height="40" as="alternateBounds"/>
                    </mxGeometry>
                </mxCell>
                <mxCell id="232" value="I" style="shape=partialRectangle;html=1;whiteSpace=wrap;connectable=0;overflow=hidden;fillColor=none;top=0;left=0;bottom=0;right=0;pointerEvents=1;fontSize=24;" parent="224" vertex="1">
                    <mxGeometry x="280" width="40" height="40" as="geometry">
                        <mxRectangle width="40" height="40" as="alternateBounds"/>
                    </mxGeometry>
                </mxCell>
                <mxCell id="233" value="O" style="shape=partialRectangle;html=1;whiteSpace=wrap;connectable=0;overflow=hidden;fillColor=none;top=0;left=0;bottom=0;right=0;pointerEvents=1;fontSize=24;" parent="224" vertex="1">
                    <mxGeometry x="320" width="40" height="40" as="geometry">
                        <mxRectangle width="40" height="40" as="alternateBounds"/>
                    </mxGeometry>
                </mxCell>
                <mxCell id="234" value="P" style="shape=partialRectangle;html=1;whiteSpace=wrap;connectable=0;overflow=hidden;fillColor=none;top=0;left=0;bottom=0;right=0;pointerEvents=1;fontSize=24;" parent="224" vertex="1">
                    <mxGeometry x="360" width="40" height="40" as="geometry">
                        <mxRectangle width="40" height="40" as="alternateBounds"/>
                    </mxGeometry>
                </mxCell>
                <mxCell id="235" value="" style="shape=tableRow;horizontal=0;startSize=0;swimlaneHead=0;swimlaneBody=0;top=0;left=0;bottom=0;right=0;collapsible=0;dropTarget=0;fillColor=none;points=[[0,0.5],[1,0.5]];portConstraint=eastwest;fontSize=24;" parent="223" vertex="1">
                    <mxGeometry y="40" width="400" height="40" as="geometry"/>
                </mxCell>
                <mxCell id="236" value="A" style="shape=partialRectangle;html=1;whiteSpace=wrap;connectable=0;overflow=hidden;fillColor=none;top=0;left=0;bottom=0;right=0;pointerEvents=1;fontSize=24;" parent="235" vertex="1">
                    <mxGeometry width="40" height="40" as="geometry">
                        <mxRectangle width="40" height="40" as="alternateBounds"/>
                    </mxGeometry>
                </mxCell>
                <mxCell id="237" value="S" style="shape=partialRectangle;html=1;whiteSpace=wrap;connectable=0;overflow=hidden;fillColor=none;top=0;left=0;bottom=0;right=0;pointerEvents=1;fontSize=24;" parent="235" vertex="1">
                    <mxGeometry x="40" width="40" height="40" as="geometry">
                        <mxRectangle width="40" height="40" as="alternateBounds"/>
                    </mxGeometry>
                </mxCell>
                <mxCell id="238" value="D" style="shape=partialRectangle;html=1;whiteSpace=wrap;connectable=0;overflow=hidden;fillColor=none;top=0;left=0;bottom=0;right=0;pointerEvents=1;fontSize=24;" parent="235" vertex="1">
                    <mxGeometry x="80" width="40" height="40" as="geometry">
                        <mxRectangle width="40" height="40" as="alternateBounds"/>
                    </mxGeometry>
                </mxCell>
                <mxCell id="239" value="F" style="shape=partialRectangle;html=1;whiteSpace=wrap;connectable=0;overflow=hidden;fillColor=none;top=0;left=0;bottom=0;right=0;pointerEvents=1;fontSize=24;" parent="235" vertex="1">
                    <mxGeometry x="120" width="40" height="40" as="geometry">
                        <mxRectangle width="40" height="40" as="alternateBounds"/>
                    </mxGeometry>
                </mxCell>
                <mxCell id="240" value="G" style="shape=partialRectangle;html=1;whiteSpace=wrap;connectable=0;overflow=hidden;fillColor=none;top=0;left=0;bottom=0;right=0;pointerEvents=1;fontSize=24;" parent="235" vertex="1">
                    <mxGeometry x="160" width="40" height="40" as="geometry">
                        <mxRectangle width="40" height="40" as="alternateBounds"/>
                    </mxGeometry>
                </mxCell>
                <mxCell id="241" value="H" style="shape=partialRectangle;html=1;whiteSpace=wrap;connectable=0;overflow=hidden;fillColor=none;top=0;left=0;bottom=0;right=0;pointerEvents=1;fontSize=24;" parent="235" vertex="1">
                    <mxGeometry x="200" width="40" height="40" as="geometry">
                        <mxRectangle width="40" height="40" as="alternateBounds"/>
                    </mxGeometry>
                </mxCell>
                <mxCell id="242" value="J" style="shape=partialRectangle;html=1;whiteSpace=wrap;connectable=0;overflow=hidden;fillColor=none;top=0;left=0;bottom=0;right=0;pointerEvents=1;fontSize=24;" parent="235" vertex="1">
                    <mxGeometry x="240" width="40" height="40" as="geometry">
                        <mxRectangle width="40" height="40" as="alternateBounds"/>
                    </mxGeometry>
                </mxCell>
                <mxCell id="243" value="K" style="shape=partialRectangle;html=1;whiteSpace=wrap;connectable=0;overflow=hidden;fillColor=none;top=0;left=0;bottom=0;right=0;pointerEvents=1;fontSize=24;" parent="235" vertex="1">
                    <mxGeometry x="280" width="40" height="40" as="geometry">
                        <mxRectangle width="40" height="40" as="alternateBounds"/>
                    </mxGeometry>
                </mxCell>
                <mxCell id="244" value="L" style="shape=partialRectangle;html=1;whiteSpace=wrap;connectable=0;overflow=hidden;fillColor=none;top=0;left=0;bottom=0;right=0;pointerEvents=1;fontSize=24;" parent="235" vertex="1">
                    <mxGeometry x="320" width="40" height="40" as="geometry">
                        <mxRectangle width="40" height="40" as="alternateBounds"/>
                    </mxGeometry>
                </mxCell>
                <mxCell id="245" value="" style="shape=partialRectangle;html=1;whiteSpace=wrap;connectable=0;overflow=hidden;fillColor=none;top=0;left=0;bottom=0;right=0;pointerEvents=1;fontSize=24;" parent="235" vertex="1">
                    <mxGeometry x="360" width="40" height="40" as="geometry">
                        <mxRectangle width="40" height="40" as="alternateBounds"/>
                    </mxGeometry>
                </mxCell>
                <mxCell id="246" value="" style="shape=tableRow;horizontal=0;startSize=0;swimlaneHead=0;swimlaneBody=0;top=0;left=0;bottom=0;right=0;collapsible=0;dropTarget=0;fillColor=none;points=[[0,0.5],[1,0.5]];portConstraint=eastwest;fontSize=24;" parent="223" vertex="1">
                    <mxGeometry y="80" width="400" height="40" as="geometry"/>
                </mxCell>
                <mxCell id="247" value="Back&lt;br&gt;space" style="shape=partialRectangle;html=1;whiteSpace=wrap;connectable=0;overflow=hidden;fillColor=none;top=0;left=0;bottom=0;right=0;pointerEvents=1;fontSize=12;" parent="246" vertex="1">
                    <mxGeometry width="40" height="40" as="geometry">
                        <mxRectangle width="40" height="40" as="alternateBounds"/>
                    </mxGeometry>
                </mxCell>
                <mxCell id="248" value="Z" style="shape=partialRectangle;html=1;whiteSpace=wrap;connectable=0;overflow=hidden;fillColor=none;top=0;left=0;bottom=0;right=0;pointerEvents=1;fontSize=24;" parent="246" vertex="1">
                    <mxGeometry x="40" width="40" height="40" as="geometry">
                        <mxRectangle width="40" height="40" as="alternateBounds"/>
                    </mxGeometry>
                </mxCell>
                <mxCell id="249" value="X" style="shape=partialRectangle;html=1;whiteSpace=wrap;connectable=0;overflow=hidden;fillColor=none;top=0;left=0;bottom=0;right=0;pointerEvents=1;fontSize=24;" parent="246" vertex="1">
                    <mxGeometry x="80" width="40" height="40" as="geometry">
                        <mxRectangle width="40" height="40" as="alternateBounds"/>
                    </mxGeometry>
                </mxCell>
                <mxCell id="250" value="C" style="shape=partialRectangle;html=1;whiteSpace=wrap;connectable=0;overflow=hidden;fillColor=none;top=0;left=0;bottom=0;right=0;pointerEvents=1;fontSize=24;" parent="246" vertex="1">
                    <mxGeometry x="120" width="40" height="40" as="geometry">
                        <mxRectangle width="40" height="40" as="alternateBounds"/>
                    </mxGeometry>
                </mxCell>
                <mxCell id="251" value="V" style="shape=partialRectangle;html=1;whiteSpace=wrap;connectable=0;overflow=hidden;fillColor=none;top=0;left=0;bottom=0;right=0;pointerEvents=1;fontSize=24;" parent="246" vertex="1">
                    <mxGeometry x="160" width="40" height="40" as="geometry">
                        <mxRectangle width="40" height="40" as="alternateBounds"/>
                    </mxGeometry>
                </mxCell>
                <mxCell id="252" value="B" style="shape=partialRectangle;html=1;whiteSpace=wrap;connectable=0;overflow=hidden;fillColor=none;top=0;left=0;bottom=0;right=0;pointerEvents=1;fontSize=24;" parent="246" vertex="1">
                    <mxGeometry x="200" width="40" height="40" as="geometry">
                        <mxRectangle width="40" height="40" as="alternateBounds"/>
                    </mxGeometry>
                </mxCell>
                <mxCell id="253" value="N" style="shape=partialRectangle;html=1;whiteSpace=wrap;connectable=0;overflow=hidden;fillColor=none;top=0;left=0;bottom=0;right=0;pointerEvents=1;fontSize=24;" parent="246" vertex="1">
                    <mxGeometry x="240" width="40" height="40" as="geometry">
                        <mxRectangle width="40" height="40" as="alternateBounds"/>
                    </mxGeometry>
                </mxCell>
                <mxCell id="254" value="M" style="shape=partialRectangle;html=1;whiteSpace=wrap;connectable=0;overflow=hidden;fillColor=none;top=0;left=0;bottom=0;right=0;pointerEvents=1;fontSize=24;" parent="246" vertex="1">
                    <mxGeometry x="280" width="40" height="40" as="geometry">
                        <mxRectangle width="40" height="40" as="alternateBounds"/>
                    </mxGeometry>
                </mxCell>
                <mxCell id="255" value="" style="shape=partialRectangle;html=1;whiteSpace=wrap;connectable=0;overflow=hidden;fillColor=none;top=0;left=0;bottom=0;right=0;pointerEvents=1;fontSize=24;" parent="246" vertex="1">
                    <mxGeometry x="320" width="40" height="40" as="geometry">
                        <mxRectangle width="40" height="40" as="alternateBounds"/>
                    </mxGeometry>
                </mxCell>
                <mxCell id="256" value="Enter" style="shape=partialRectangle;html=1;whiteSpace=wrap;connectable=0;overflow=hidden;fillColor=none;top=0;left=0;bottom=0;right=0;pointerEvents=1;fontSize=12;" parent="246" vertex="1">
                    <mxGeometry x="360" width="40" height="40" as="geometry">
                        <mxRectangle width="40" height="40" as="alternateBounds"/>
                    </mxGeometry>
                </mxCell>
                <mxCell id="257" value="Wins: 12 Losses: 3&lt;br&gt;Longest Streak: 6" style="text;strokeColor=none;align=center;fillColor=none;html=1;verticalAlign=middle;whiteSpace=wrap;rounded=0;fontSize=12;" parent="1" vertex="1">
                    <mxGeometry x="305" y="70" width="240" height="30" as="geometry"/>
                </mxCell>
                <mxCell id="258" value="" style="shape=table;startSize=0;container=1;collapsible=0;childLayout=tableLayout;fontSize=24;" parent="1" vertex="1">
                    <mxGeometry x="200" y="480" width="200" height="320" as="geometry"/>
                </mxCell>
                <mxCell id="259" value="" style="shape=tableRow;horizontal=0;startSize=0;swimlaneHead=0;swimlaneBody=0;top=0;left=0;bottom=0;right=0;collapsible=0;dropTarget=0;fillColor=none;points=[[0,0.5],[1,0.5]];portConstraint=eastwest;fontSize=24;" parent="258" vertex="1">
                    <mxGeometry width="200" height="35" as="geometry"/>
                </mxCell>
                <mxCell id="260" value="A" style="shape=partialRectangle;html=1;whiteSpace=wrap;connectable=0;overflow=hidden;fillColor=#647687;top=0;left=0;bottom=0;right=0;pointerEvents=1;fontSize=24;fontColor=#ffffff;strokeColor=#314354;" parent="259" vertex="1">
                    <mxGeometry width="40" height="35" as="geometry">
                        <mxRectangle width="40" height="35" as="alternateBounds"/>
                    </mxGeometry>
                </mxCell>
                <mxCell id="261" value="R" style="shape=partialRectangle;html=1;whiteSpace=wrap;connectable=0;overflow=hidden;fillColor=#e3c800;top=0;left=0;bottom=0;right=0;pointerEvents=1;fontSize=24;fontColor=#000000;strokeColor=#B09500;" parent="259" vertex="1">
                    <mxGeometry x="40" width="40" height="35" as="geometry">
                        <mxRectangle width="40" height="35" as="alternateBounds"/>
                    </mxGeometry>
                </mxCell>
                <mxCell id="262" value="I" style="shape=partialRectangle;html=1;whiteSpace=wrap;connectable=0;overflow=hidden;fillColor=#e3c800;top=0;left=0;bottom=0;right=0;pointerEvents=1;fontSize=24;fontColor=#000000;strokeColor=#B09500;" parent="259" vertex="1">
                    <mxGeometry x="80" width="40" height="35" as="geometry">
                        <mxRectangle width="40" height="35" as="alternateBounds"/>
                    </mxGeometry>
                </mxCell>
                <mxCell id="263" value="S" style="shape=partialRectangle;html=1;whiteSpace=wrap;connectable=0;overflow=hidden;fillColor=#647687;top=0;left=0;bottom=0;right=0;pointerEvents=1;fontSize=24;fontColor=#ffffff;strokeColor=#314354;" parent="259" vertex="1">
                    <mxGeometry x="120" width="40" height="35" as="geometry">
                        <mxRectangle width="40" height="35" as="alternateBounds"/>
                    </mxGeometry>
                </mxCell>
                <mxCell id="264" value="E" style="shape=partialRectangle;html=1;whiteSpace=wrap;connectable=0;overflow=hidden;fillColor=#e3c800;top=0;left=0;bottom=0;right=0;pointerEvents=1;fontSize=24;fontColor=#000000;strokeColor=#B09500;" parent="259" vertex="1">
                    <mxGeometry x="160" width="40" height="35" as="geometry">
                        <mxRectangle width="40" height="35" as="alternateBounds"/>
                    </mxGeometry>
                </mxCell>
                <mxCell id="265" value="" style="shape=tableRow;horizontal=0;startSize=0;swimlaneHead=0;swimlaneBody=0;top=0;left=0;bottom=0;right=0;collapsible=0;dropTarget=0;fillColor=none;points=[[0,0.5],[1,0.5]];portConstraint=eastwest;fontSize=24;" parent="258" vertex="1">
                    <mxGeometry y="35" width="200" height="36" as="geometry"/>
                </mxCell>
                <mxCell id="266" value="C" style="shape=partialRectangle;html=1;whiteSpace=wrap;connectable=0;overflow=hidden;fillColor=#647687;top=0;left=0;bottom=0;right=0;pointerEvents=1;fontSize=24;fontColor=#ffffff;strokeColor=#314354;" parent="265" vertex="1">
                    <mxGeometry width="40" height="36" as="geometry">
                        <mxRectangle width="40" height="36" as="alternateBounds"/>
                    </mxGeometry>
                </mxCell>
                <mxCell id="267" value="L" style="shape=partialRectangle;html=1;whiteSpace=wrap;connectable=0;overflow=hidden;fillColor=#647687;top=0;left=0;bottom=0;right=0;pointerEvents=1;fontSize=24;fontColor=#ffffff;strokeColor=#314354;" parent="265" vertex="1">
                    <mxGeometry x="40" width="40" height="36" as="geometry">
                        <mxRectangle width="40" height="36" as="alternateBounds"/>
                    </mxGeometry>
                </mxCell>
                <mxCell id="268" value="O" style="shape=partialRectangle;html=1;whiteSpace=wrap;connectable=0;overflow=hidden;fillColor=#647687;top=0;left=0;bottom=0;right=0;pointerEvents=1;fontSize=24;fontColor=#ffffff;strokeColor=#314354;" parent="265" vertex="1">
                    <mxGeometry x="80" width="40" height="36" as="geometry">
                        <mxRectangle width="40" height="36" as="alternateBounds"/>
                    </mxGeometry>
                </mxCell>
                <mxCell id="269" value="U" style="shape=partialRectangle;html=1;whiteSpace=wrap;connectable=0;overflow=hidden;fillColor=#647687;top=0;left=0;bottom=0;right=0;pointerEvents=1;fontSize=24;fontColor=#ffffff;strokeColor=#314354;" parent="265" vertex="1">
                    <mxGeometry x="120" width="40" height="36" as="geometry">
                        <mxRectangle width="40" height="36" as="alternateBounds"/>
                    </mxGeometry>
                </mxCell>
                <mxCell id="270" value="T" style="shape=partialRectangle;html=1;whiteSpace=wrap;connectable=0;overflow=hidden;fillColor=#647687;top=0;left=0;bottom=0;right=0;pointerEvents=1;fontSize=24;fontColor=#ffffff;strokeColor=#314354;" parent="265" vertex="1">
                    <mxGeometry x="160" width="40" height="36" as="geometry">
                        <mxRectangle width="40" height="36" as="alternateBounds"/>
                    </mxGeometry>
                </mxCell>
                <mxCell id="271" value="" style="shape=tableRow;horizontal=0;startSize=0;swimlaneHead=0;swimlaneBody=0;top=0;left=0;bottom=0;right=0;collapsible=0;dropTarget=0;fillColor=none;points=[[0,0.5],[1,0.5]];portConstraint=eastwest;fontSize=24;" parent="258" vertex="1">
                    <mxGeometry y="71" width="200" height="36" as="geometry"/>
                </mxCell>
                <mxCell id="272" value="C" style="shape=partialRectangle;html=1;whiteSpace=wrap;connectable=0;overflow=hidden;fillColor=#647687;top=0;left=0;bottom=0;right=0;pointerEvents=1;fontSize=24;fontColor=#ffffff;strokeColor=#314354;" parent="271" vertex="1">
                    <mxGeometry width="40" height="36" as="geometry">
                        <mxRectangle width="40" height="36" as="alternateBounds"/>
                    </mxGeometry>
                </mxCell>
                <mxCell id="273" value="A" style="shape=partialRectangle;html=1;whiteSpace=wrap;connectable=0;overflow=hidden;fillColor=#647687;top=0;left=0;bottom=0;right=0;pointerEvents=1;fontSize=24;fontColor=#ffffff;strokeColor=#314354;" parent="271" vertex="1">
                    <mxGeometry x="40" width="40" height="36" as="geometry">
                        <mxRectangle width="40" height="36" as="alternateBounds"/>
                    </mxGeometry>
                </mxCell>
                <mxCell id="274" value="R" style="shape=partialRectangle;html=1;whiteSpace=wrap;connectable=0;overflow=hidden;fillColor=#e3c800;top=0;left=0;bottom=0;right=0;pointerEvents=1;fontSize=24;fontColor=#000000;strokeColor=#B09500;" parent="271" vertex="1">
                    <mxGeometry x="80" width="40" height="36" as="geometry">
                        <mxRectangle width="40" height="36" as="alternateBounds"/>
                    </mxGeometry>
                </mxCell>
                <mxCell id="275" value="V" style="shape=partialRectangle;html=1;whiteSpace=wrap;connectable=0;overflow=hidden;fillColor=#647687;top=0;left=0;bottom=0;right=0;pointerEvents=1;fontSize=24;fontColor=#ffffff;strokeColor=#314354;" parent="271" vertex="1">
                    <mxGeometry x="120" width="40" height="36" as="geometry">
                        <mxRectangle width="40" height="36" as="alternateBounds"/>
                    </mxGeometry>
                </mxCell>
                <mxCell id="276" value="E" style="shape=partialRectangle;html=1;whiteSpace=wrap;connectable=0;overflow=hidden;fillColor=#e3c800;top=0;left=0;bottom=0;right=0;pointerEvents=1;fontSize=24;fontColor=#000000;strokeColor=#B09500;" parent="271" vertex="1">
                    <mxGeometry x="160" width="40" height="36" as="geometry">
                        <mxRectangle width="40" height="36" as="alternateBounds"/>
                    </mxGeometry>
                </mxCell>
                <mxCell id="277" value="" style="shape=tableRow;horizontal=0;startSize=0;swimlaneHead=0;swimlaneBody=0;top=0;left=0;bottom=0;right=0;collapsible=0;dropTarget=0;fillColor=none;points=[[0,0.5],[1,0.5]];portConstraint=eastwest;fontSize=24;" parent="258" vertex="1">
                    <mxGeometry y="107" width="200" height="36" as="geometry"/>
                </mxCell>
                <mxCell id="278" value="S" style="shape=partialRectangle;html=1;whiteSpace=wrap;connectable=0;overflow=hidden;fillColor=#647687;top=0;left=0;bottom=0;right=0;pointerEvents=1;fontSize=24;fontColor=#ffffff;strokeColor=#314354;" parent="277" vertex="1">
                    <mxGeometry width="40" height="36" as="geometry">
                        <mxRectangle width="40" height="36" as="alternateBounds"/>
                    </mxGeometry>
                </mxCell>
                <mxCell id="279" value="T" style="shape=partialRectangle;html=1;whiteSpace=wrap;connectable=0;overflow=hidden;fillColor=#647687;top=0;left=0;bottom=0;right=0;pointerEvents=1;fontSize=24;fontColor=#ffffff;strokeColor=#314354;" parent="277" vertex="1">
                    <mxGeometry x="40" width="40" height="36" as="geometry">
                        <mxRectangle width="40" height="36" as="alternateBounds"/>
                    </mxGeometry>
                </mxCell>
                <mxCell id="280" value="R" style="shape=partialRectangle;html=1;whiteSpace=wrap;connectable=0;overflow=hidden;fillColor=#e3c800;top=0;left=0;bottom=0;right=0;pointerEvents=1;fontSize=24;fontColor=#000000;strokeColor=#B09500;" parent="277" vertex="1">
                    <mxGeometry x="80" width="40" height="36" as="geometry">
                        <mxRectangle width="40" height="36" as="alternateBounds"/>
                    </mxGeometry>
                </mxCell>
                <mxCell id="281" value="A" style="shape=partialRectangle;html=1;whiteSpace=wrap;connectable=0;overflow=hidden;fillColor=#647687;top=0;left=0;bottom=0;right=0;pointerEvents=1;fontSize=24;fontColor=#ffffff;strokeColor=#314354;" parent="277" vertex="1">
                    <mxGeometry x="120" width="40" height="36" as="geometry">
                        <mxRectangle width="40" height="36" as="alternateBounds"/>
                    </mxGeometry>
                </mxCell>
                <mxCell id="282" value="W" style="shape=partialRectangle;html=1;whiteSpace=wrap;connectable=0;overflow=hidden;fillColor=#647687;top=0;left=0;bottom=0;right=0;pointerEvents=1;fontSize=24;fontColor=#ffffff;strokeColor=#314354;" parent="277" vertex="1">
                    <mxGeometry x="160" width="40" height="36" as="geometry">
                        <mxRectangle width="40" height="36" as="alternateBounds"/>
                    </mxGeometry>
                </mxCell>
                <mxCell id="283" value="" style="shape=tableRow;horizontal=0;startSize=0;swimlaneHead=0;swimlaneBody=0;top=0;left=0;bottom=0;right=0;collapsible=0;dropTarget=0;fillColor=none;points=[[0,0.5],[1,0.5]];portConstraint=eastwest;fontSize=24;" parent="258" vertex="1">
                    <mxGeometry y="143" width="200" height="34" as="geometry"/>
                </mxCell>
                <mxCell id="284" value="L" style="shape=partialRectangle;html=1;whiteSpace=wrap;connectable=0;overflow=hidden;fillColor=#647687;top=0;left=0;bottom=0;right=0;pointerEvents=1;fontSize=24;fontColor=#ffffff;strokeColor=#314354;" parent="283" vertex="1">
                    <mxGeometry width="40" height="34" as="geometry">
                        <mxRectangle width="40" height="34" as="alternateBounds"/>
                    </mxGeometry>
                </mxCell>
                <mxCell id="285" value="I" style="shape=partialRectangle;html=1;whiteSpace=wrap;connectable=0;overflow=hidden;fillColor=#60a917;top=0;left=0;bottom=0;right=0;pointerEvents=1;fontSize=24;fontColor=#ffffff;strokeColor=#2D7600;" parent="283" vertex="1">
                    <mxGeometry x="40" width="40" height="34" as="geometry">
                        <mxRectangle width="40" height="34" as="alternateBounds"/>
                    </mxGeometry>
                </mxCell>
                <mxCell id="286" value="T" style="shape=partialRectangle;html=1;whiteSpace=wrap;connectable=0;overflow=hidden;fillColor=#647687;top=0;left=0;bottom=0;right=0;pointerEvents=1;fontSize=24;fontColor=#ffffff;strokeColor=#314354;" parent="283" vertex="1">
                    <mxGeometry x="80" width="40" height="34" as="geometry">
                        <mxRectangle width="40" height="34" as="alternateBounds"/>
                    </mxGeometry>
                </mxCell>
                <mxCell id="287" value="H" style="shape=partialRectangle;html=1;whiteSpace=wrap;connectable=0;overflow=hidden;fillColor=#647687;top=0;left=0;bottom=0;right=0;pointerEvents=1;fontSize=24;fontColor=#ffffff;strokeColor=#314354;" parent="283" vertex="1">
                    <mxGeometry x="120" width="40" height="34" as="geometry">
                        <mxRectangle width="40" height="34" as="alternateBounds"/>
                    </mxGeometry>
                </mxCell>
                <mxCell id="288" value="E" style="shape=partialRectangle;html=1;whiteSpace=wrap;connectable=0;overflow=hidden;fillColor=#e3c800;top=0;left=0;bottom=0;right=0;pointerEvents=1;fontSize=24;fontColor=#000000;strokeColor=#B09500;" parent="283" vertex="1">
                    <mxGeometry x="160" width="40" height="34" as="geometry">
                        <mxRectangle width="40" height="34" as="alternateBounds"/>
                    </mxGeometry>
                </mxCell>
                <mxCell id="289" value="" style="shape=tableRow;horizontal=0;startSize=0;swimlaneHead=0;swimlaneBody=0;top=0;left=0;bottom=0;right=0;collapsible=0;dropTarget=0;fillColor=none;points=[[0,0.5],[1,0.5]];portConstraint=eastwest;fontSize=24;" parent="258" vertex="1">
                    <mxGeometry y="177" width="200" height="36" as="geometry"/>
                </mxCell>
                <mxCell id="290" value="M" style="shape=partialRectangle;html=1;whiteSpace=wrap;connectable=0;overflow=hidden;fillColor=#60a917;top=0;left=0;bottom=0;right=0;pointerEvents=1;fontSize=24;fontColor=#ffffff;strokeColor=#2D7600;" parent="289" vertex="1">
                    <mxGeometry width="40" height="36" as="geometry">
                        <mxRectangle width="40" height="36" as="alternateBounds"/>
                    </mxGeometry>
                </mxCell>
                <mxCell id="291" value="I" style="shape=partialRectangle;html=1;whiteSpace=wrap;connectable=0;overflow=hidden;fillColor=#60a917;top=0;left=0;bottom=0;right=0;pointerEvents=1;fontSize=24;fontColor=#ffffff;strokeColor=#2D7600;" parent="289" vertex="1">
                    <mxGeometry x="40" width="40" height="36" as="geometry">
                        <mxRectangle width="40" height="36" as="alternateBounds"/>
                    </mxGeometry>
                </mxCell>
                <mxCell id="292" value="N" style="shape=partialRectangle;html=1;whiteSpace=wrap;connectable=0;overflow=hidden;fillColor=#60a917;top=0;left=0;bottom=0;right=0;pointerEvents=1;fontSize=24;fontColor=#ffffff;strokeColor=#2D7600;" parent="289" vertex="1">
                    <mxGeometry x="80" width="40" height="36" as="geometry">
                        <mxRectangle width="40" height="36" as="alternateBounds"/>
                    </mxGeometry>
                </mxCell>
                <mxCell id="293" value="E" style="shape=partialRectangle;html=1;whiteSpace=wrap;connectable=0;overflow=hidden;fillColor=#60a917;top=0;left=0;bottom=0;right=0;pointerEvents=1;fontSize=24;fontColor=#ffffff;strokeColor=#2D7600;" parent="289" vertex="1">
                    <mxGeometry x="120" width="40" height="36" as="geometry">
                        <mxRectangle width="40" height="36" as="alternateBounds"/>
                    </mxGeometry>
                </mxCell>
                <mxCell id="294" value="R" style="shape=partialRectangle;html=1;whiteSpace=wrap;connectable=0;overflow=hidden;fillColor=#60a917;top=0;left=0;bottom=0;right=0;pointerEvents=1;fontSize=24;fontColor=#ffffff;strokeColor=#2D7600;" parent="289" vertex="1">
                    <mxGeometry x="160" width="40" height="36" as="geometry">
                        <mxRectangle width="40" height="36" as="alternateBounds"/>
                    </mxGeometry>
                </mxCell>
                <mxCell id="295" value="" style="shape=tableRow;horizontal=0;startSize=0;swimlaneHead=0;swimlaneBody=0;top=0;left=0;bottom=0;right=0;collapsible=0;dropTarget=0;fillColor=none;points=[[0,0.5],[1,0.5]];portConstraint=eastwest;fontSize=24;" parent="258" vertex="1">
                    <mxGeometry y="213" width="200" height="36" as="geometry"/>
                </mxCell>
                <mxCell id="296" value="" style="shape=partialRectangle;html=1;whiteSpace=wrap;connectable=0;overflow=hidden;fillColor=none;top=0;left=0;bottom=0;right=0;pointerEvents=1;fontSize=24;" parent="295" vertex="1">
                    <mxGeometry width="40" height="36" as="geometry">
                        <mxRectangle width="40" height="36" as="alternateBounds"/>
                    </mxGeometry>
                </mxCell>
                <mxCell id="297" value="" style="shape=partialRectangle;html=1;whiteSpace=wrap;connectable=0;overflow=hidden;fillColor=none;top=0;left=0;bottom=0;right=0;pointerEvents=1;fontSize=24;" parent="295" vertex="1">
                    <mxGeometry x="40" width="40" height="36" as="geometry">
                        <mxRectangle width="40" height="36" as="alternateBounds"/>
                    </mxGeometry>
                </mxCell>
                <mxCell id="298" value="" style="shape=partialRectangle;html=1;whiteSpace=wrap;connectable=0;overflow=hidden;fillColor=none;top=0;left=0;bottom=0;right=0;pointerEvents=1;fontSize=24;" parent="295" vertex="1">
                    <mxGeometry x="80" width="40" height="36" as="geometry">
                        <mxRectangle width="40" height="36" as="alternateBounds"/>
                    </mxGeometry>
                </mxCell>
                <mxCell id="299" value="" style="shape=partialRectangle;html=1;whiteSpace=wrap;connectable=0;overflow=hidden;fillColor=none;top=0;left=0;bottom=0;right=0;pointerEvents=1;fontSize=24;" parent="295" vertex="1">
                    <mxGeometry x="120" width="40" height="36" as="geometry">
                        <mxRectangle width="40" height="36" as="alternateBounds"/>
                    </mxGeometry>
                </mxCell>
                <mxCell id="300" value="" style="shape=partialRectangle;html=1;whiteSpace=wrap;connectable=0;overflow=hidden;fillColor=none;top=0;left=0;bottom=0;right=0;pointerEvents=1;fontSize=24;" parent="295" vertex="1">
                    <mxGeometry x="160" width="40" height="36" as="geometry">
                        <mxRectangle width="40" height="36" as="alternateBounds"/>
                    </mxGeometry>
                </mxCell>
                <mxCell id="301" value="" style="shape=tableRow;horizontal=0;startSize=0;swimlaneHead=0;swimlaneBody=0;top=0;left=0;bottom=0;right=0;collapsible=0;dropTarget=0;fillColor=none;points=[[0,0.5],[1,0.5]];portConstraint=eastwest;fontSize=24;" parent="258" vertex="1">
                    <mxGeometry y="249" width="200" height="36" as="geometry"/>
                </mxCell>
                <mxCell id="302" value="" style="shape=partialRectangle;html=1;whiteSpace=wrap;connectable=0;overflow=hidden;fillColor=none;top=0;left=0;bottom=0;right=0;pointerEvents=1;fontSize=24;" parent="301" vertex="1">
                    <mxGeometry width="40" height="36" as="geometry">
                        <mxRectangle width="40" height="36" as="alternateBounds"/>
                    </mxGeometry>
                </mxCell>
                <mxCell id="303" value="" style="shape=partialRectangle;html=1;whiteSpace=wrap;connectable=0;overflow=hidden;fillColor=none;top=0;left=0;bottom=0;right=0;pointerEvents=1;fontSize=24;" parent="301" vertex="1">
                    <mxGeometry x="40" width="40" height="36" as="geometry">
                        <mxRectangle width="40" height="36" as="alternateBounds"/>
                    </mxGeometry>
                </mxCell>
                <mxCell id="304" value="" style="shape=partialRectangle;html=1;whiteSpace=wrap;connectable=0;overflow=hidden;fillColor=none;top=0;left=0;bottom=0;right=0;pointerEvents=1;fontSize=24;" parent="301" vertex="1">
                    <mxGeometry x="80" width="40" height="36" as="geometry">
                        <mxRectangle width="40" height="36" as="alternateBounds"/>
                    </mxGeometry>
                </mxCell>
                <mxCell id="305" value="" style="shape=partialRectangle;html=1;whiteSpace=wrap;connectable=0;overflow=hidden;fillColor=none;top=0;left=0;bottom=0;right=0;pointerEvents=1;fontSize=24;" parent="301" vertex="1">
                    <mxGeometry x="120" width="40" height="36" as="geometry">
                        <mxRectangle width="40" height="36" as="alternateBounds"/>
                    </mxGeometry>
                </mxCell>
                <mxCell id="306" value="" style="shape=partialRectangle;html=1;whiteSpace=wrap;connectable=0;overflow=hidden;fillColor=none;top=0;left=0;bottom=0;right=0;pointerEvents=1;fontSize=24;" parent="301" vertex="1">
                    <mxGeometry x="160" width="40" height="36" as="geometry">
                        <mxRectangle width="40" height="36" as="alternateBounds"/>
                    </mxGeometry>
                </mxCell>
                <mxCell id="307" value="" style="shape=tableRow;horizontal=0;startSize=0;swimlaneHead=0;swimlaneBody=0;top=0;left=0;bottom=0;right=0;collapsible=0;dropTarget=0;fillColor=none;points=[[0,0.5],[1,0.5]];portConstraint=eastwest;fontSize=24;" parent="258" vertex="1">
                    <mxGeometry y="285" width="200" height="35" as="geometry"/>
                </mxCell>
                <mxCell id="308" value="" style="shape=partialRectangle;html=1;whiteSpace=wrap;connectable=0;overflow=hidden;fillColor=none;top=0;left=0;bottom=0;right=0;pointerEvents=1;fontSize=24;" parent="307" vertex="1">
                    <mxGeometry width="40" height="35" as="geometry">
                        <mxRectangle width="40" height="35" as="alternateBounds"/>
                    </mxGeometry>
                </mxCell>
                <mxCell id="309" value="" style="shape=partialRectangle;html=1;whiteSpace=wrap;connectable=0;overflow=hidden;fillColor=none;top=0;left=0;bottom=0;right=0;pointerEvents=1;fontSize=24;" parent="307" vertex="1">
                    <mxGeometry x="40" width="40" height="35" as="geometry">
                        <mxRectangle width="40" height="35" as="alternateBounds"/>
                    </mxGeometry>
                </mxCell>
                <mxCell id="310" value="" style="shape=partialRectangle;html=1;whiteSpace=wrap;connectable=0;overflow=hidden;fillColor=none;top=0;left=0;bottom=0;right=0;pointerEvents=1;fontSize=24;" parent="307" vertex="1">
                    <mxGeometry x="80" width="40" height="35" as="geometry">
                        <mxRectangle width="40" height="35" as="alternateBounds"/>
                    </mxGeometry>
                </mxCell>
                <mxCell id="311" value="" style="shape=partialRectangle;html=1;whiteSpace=wrap;connectable=0;overflow=hidden;fillColor=none;top=0;left=0;bottom=0;right=0;pointerEvents=1;fontSize=24;" parent="307" vertex="1">
                    <mxGeometry x="120" width="40" height="35" as="geometry">
                        <mxRectangle width="40" height="35" as="alternateBounds"/>
                    </mxGeometry>
                </mxCell>
                <mxCell id="312" value="" style="shape=partialRectangle;html=1;whiteSpace=wrap;connectable=0;overflow=hidden;fillColor=none;top=0;left=0;bottom=0;right=0;pointerEvents=1;fontSize=24;" parent="307" vertex="1">
                    <mxGeometry x="160" width="40" height="35" as="geometry">
                        <mxRectangle width="40" height="35" as="alternateBounds"/>
                    </mxGeometry>
                </mxCell>
                <mxCell id="313" value="" style="shape=table;startSize=0;container=1;collapsible=0;childLayout=tableLayout;fontSize=24;" parent="1" vertex="1">
                    <mxGeometry x="440" y="480" width="200" height="320" as="geometry"/>
                </mxCell>
                <mxCell id="314" value="" style="shape=tableRow;horizontal=0;startSize=0;swimlaneHead=0;swimlaneBody=0;top=0;left=0;bottom=0;right=0;collapsible=0;dropTarget=0;fillColor=none;points=[[0,0.5],[1,0.5]];portConstraint=eastwest;fontSize=24;" parent="313" vertex="1">
                    <mxGeometry width="200" height="35" as="geometry"/>
                </mxCell>
                <mxCell id="315" value="A" style="shape=partialRectangle;html=1;whiteSpace=wrap;connectable=0;overflow=hidden;fillColor=#e3c800;top=0;left=0;bottom=0;right=0;pointerEvents=1;fontSize=24;fontColor=#000000;strokeColor=#B09500;" parent="314" vertex="1">
                    <mxGeometry width="40" height="35" as="geometry">
                        <mxRectangle width="40" height="35" as="alternateBounds"/>
                    </mxGeometry>
                </mxCell>
                <mxCell id="316" value="R" style="shape=partialRectangle;html=1;whiteSpace=wrap;connectable=0;overflow=hidden;fillColor=#e3c800;top=0;left=0;bottom=0;right=0;pointerEvents=1;fontSize=24;fontColor=#000000;strokeColor=#B09500;" parent="314" vertex="1">
                    <mxGeometry x="40" width="40" height="35" as="geometry">
                        <mxRectangle width="40" height="35" as="alternateBounds"/>
                    </mxGeometry>
                </mxCell>
                <mxCell id="317" value="I" style="shape=partialRectangle;html=1;whiteSpace=wrap;connectable=0;overflow=hidden;fillColor=#647687;top=0;left=0;bottom=0;right=0;pointerEvents=1;fontSize=24;fontColor=#ffffff;strokeColor=#314354;" parent="314" vertex="1">
                    <mxGeometry x="80" width="40" height="35" as="geometry">
                        <mxRectangle width="40" height="35" as="alternateBounds"/>
                    </mxGeometry>
                </mxCell>
                <mxCell id="318" value="S" style="shape=partialRectangle;html=1;whiteSpace=wrap;connectable=0;overflow=hidden;fillColor=#647687;top=0;left=0;bottom=0;right=0;pointerEvents=1;fontSize=24;fontColor=#ffffff;strokeColor=#314354;" parent="314" vertex="1">
                    <mxGeometry x="120" width="40" height="35" as="geometry">
                        <mxRectangle width="40" height="35" as="alternateBounds"/>
                    </mxGeometry>
                </mxCell>
                <mxCell id="319" value="E" style="shape=partialRectangle;html=1;whiteSpace=wrap;connectable=0;overflow=hidden;fillColor=#60a917;top=0;left=0;bottom=0;right=0;pointerEvents=1;fontSize=24;fontColor=#ffffff;strokeColor=#2D7600;" parent="314" vertex="1">
                    <mxGeometry x="160" width="40" height="35" as="geometry">
                        <mxRectangle width="40" height="35" as="alternateBounds"/>
                    </mxGeometry>
                </mxCell>
                <mxCell id="320" value="" style="shape=tableRow;horizontal=0;startSize=0;swimlaneHead=0;swimlaneBody=0;top=0;left=0;bottom=0;right=0;collapsible=0;dropTarget=0;fillColor=none;points=[[0,0.5],[1,0.5]];portConstraint=eastwest;fontSize=24;" parent="313" vertex="1">
                    <mxGeometry y="35" width="200" height="36" as="geometry"/>
                </mxCell>
                <mxCell id="321" value="C" style="shape=partialRectangle;html=1;whiteSpace=wrap;connectable=0;overflow=hidden;fillColor=#60a917;top=0;left=0;bottom=0;right=0;pointerEvents=1;fontSize=24;fontColor=#ffffff;strokeColor=#2D7600;" parent="320" vertex="1">
                    <mxGeometry width="40" height="36" as="geometry">
                        <mxRectangle width="40" height="36" as="alternateBounds"/>
                    </mxGeometry>
                </mxCell>
                <mxCell id="322" value="L" style="shape=partialRectangle;html=1;whiteSpace=wrap;connectable=0;overflow=hidden;fillColor=#647687;top=0;left=0;bottom=0;right=0;pointerEvents=1;fontSize=24;fontColor=#ffffff;strokeColor=#314354;" parent="320" vertex="1">
                    <mxGeometry x="40" width="40" height="36" as="geometry">
                        <mxRectangle width="40" height="36" as="alternateBounds"/>
                    </mxGeometry>
                </mxCell>
                <mxCell id="323" value="O" style="shape=partialRectangle;html=1;whiteSpace=wrap;connectable=0;overflow=hidden;fillColor=#647687;top=0;left=0;bottom=0;right=0;pointerEvents=1;fontSize=24;fontColor=#ffffff;strokeColor=#314354;" parent="320" vertex="1">
                    <mxGeometry x="80" width="40" height="36" as="geometry">
                        <mxRectangle width="40" height="36" as="alternateBounds"/>
                    </mxGeometry>
                </mxCell>
                <mxCell id="324" value="U" style="shape=partialRectangle;html=1;whiteSpace=wrap;connectable=0;overflow=hidden;fillColor=#647687;top=0;left=0;bottom=0;right=0;pointerEvents=1;fontSize=24;fontColor=#ffffff;strokeColor=#314354;" parent="320" vertex="1">
                    <mxGeometry x="120" width="40" height="36" as="geometry">
                        <mxRectangle width="40" height="36" as="alternateBounds"/>
                    </mxGeometry>
                </mxCell>
                <mxCell id="325" value="T" style="shape=partialRectangle;html=1;whiteSpace=wrap;connectable=0;overflow=hidden;fillColor=#647687;top=0;left=0;bottom=0;right=0;pointerEvents=1;fontSize=24;fontColor=#ffffff;strokeColor=#314354;" parent="320" vertex="1">
                    <mxGeometry x="160" width="40" height="36" as="geometry">
                        <mxRectangle width="40" height="36" as="alternateBounds"/>
                    </mxGeometry>
                </mxCell>
                <mxCell id="326" value="" style="shape=tableRow;horizontal=0;startSize=0;swimlaneHead=0;swimlaneBody=0;top=0;left=0;bottom=0;right=0;collapsible=0;dropTarget=0;fillColor=none;points=[[0,0.5],[1,0.5]];portConstraint=eastwest;fontSize=24;" parent="313" vertex="1">
                    <mxGeometry y="71" width="200" height="36" as="geometry"/>
                </mxCell>
                <mxCell id="327" value="C" style="shape=partialRectangle;html=1;whiteSpace=wrap;connectable=0;overflow=hidden;fillColor=#60a917;top=0;left=0;bottom=0;right=0;pointerEvents=1;fontSize=24;fontColor=#ffffff;strokeColor=#2D7600;" parent="326" vertex="1">
                    <mxGeometry width="40" height="36" as="geometry">
                        <mxRectangle width="40" height="36" as="alternateBounds"/>
                    </mxGeometry>
                </mxCell>
                <mxCell id="328" value="A" style="shape=partialRectangle;html=1;whiteSpace=wrap;connectable=0;overflow=hidden;fillColor=#60a917;top=0;left=0;bottom=0;right=0;pointerEvents=1;fontSize=24;fontColor=#ffffff;strokeColor=#2D7600;" parent="326" vertex="1">
                    <mxGeometry x="40" width="40" height="36" as="geometry">
                        <mxRectangle width="40" height="36" as="alternateBounds"/>
                    </mxGeometry>
                </mxCell>
                <mxCell id="329" value="R" style="shape=partialRectangle;html=1;whiteSpace=wrap;connectable=0;overflow=hidden;fillColor=#60a917;top=0;left=0;bottom=0;right=0;pointerEvents=1;fontSize=24;fontColor=#ffffff;strokeColor=#2D7600;" parent="326" vertex="1">
                    <mxGeometry x="80" width="40" height="36" as="geometry">
                        <mxRectangle width="40" height="36" as="alternateBounds"/>
                    </mxGeometry>
                </mxCell>
                <mxCell id="330" value="V" style="shape=partialRectangle;html=1;whiteSpace=wrap;connectable=0;overflow=hidden;fillColor=#60a917;top=0;left=0;bottom=0;right=0;pointerEvents=1;fontSize=24;fontColor=#ffffff;strokeColor=#2D7600;" parent="326" vertex="1">
                    <mxGeometry x="120" width="40" height="36" as="geometry">
                        <mxRectangle width="40" height="36" as="alternateBounds"/>
                    </mxGeometry>
                </mxCell>
                <mxCell id="331" value="E" style="shape=partialRectangle;html=1;whiteSpace=wrap;connectable=0;overflow=hidden;fillColor=#60a917;top=0;left=0;bottom=0;right=0;pointerEvents=1;fontSize=24;fontColor=#ffffff;strokeColor=#2D7600;" parent="326" vertex="1">
                    <mxGeometry x="160" width="40" height="36" as="geometry">
                        <mxRectangle width="40" height="36" as="alternateBounds"/>
                    </mxGeometry>
                </mxCell>
                <mxCell id="332" value="" style="shape=tableRow;horizontal=0;startSize=0;swimlaneHead=0;swimlaneBody=0;top=0;left=0;bottom=0;right=0;collapsible=0;dropTarget=0;fillColor=none;points=[[0,0.5],[1,0.5]];portConstraint=eastwest;fontSize=24;" parent="313" vertex="1">
                    <mxGeometry y="107" width="200" height="36" as="geometry"/>
                </mxCell>
                <mxCell id="333" value="" style="shape=partialRectangle;html=1;whiteSpace=wrap;connectable=0;overflow=hidden;fillColor=none;top=0;left=0;bottom=0;right=0;pointerEvents=1;fontSize=24;" parent="332" vertex="1">
                    <mxGeometry width="40" height="36" as="geometry">
                        <mxRectangle width="40" height="36" as="alternateBounds"/>
                    </mxGeometry>
                </mxCell>
                <mxCell id="334" value="" style="shape=partialRectangle;html=1;whiteSpace=wrap;connectable=0;overflow=hidden;fillColor=none;top=0;left=0;bottom=0;right=0;pointerEvents=1;fontSize=24;" parent="332" vertex="1">
                    <mxGeometry x="40" width="40" height="36" as="geometry">
                        <mxRectangle width="40" height="36" as="alternateBounds"/>
                    </mxGeometry>
                </mxCell>
                <mxCell id="335" value="" style="shape=partialRectangle;html=1;whiteSpace=wrap;connectable=0;overflow=hidden;fillColor=none;top=0;left=0;bottom=0;right=0;pointerEvents=1;fontSize=24;" parent="332" vertex="1">
                    <mxGeometry x="80" width="40" height="36" as="geometry">
                        <mxRectangle width="40" height="36" as="alternateBounds"/>
                    </mxGeometry>
                </mxCell>
                <mxCell id="336" value="" style="shape=partialRectangle;html=1;whiteSpace=wrap;connectable=0;overflow=hidden;fillColor=none;top=0;left=0;bottom=0;right=0;pointerEvents=1;fontSize=24;" parent="332" vertex="1">
                    <mxGeometry x="120" width="40" height="36" as="geometry">
                        <mxRectangle width="40" height="36" as="alternateBounds"/>
                    </mxGeometry>
                </mxCell>
                <mxCell id="337" value="" style="shape=partialRectangle;html=1;whiteSpace=wrap;connectable=0;overflow=hidden;fillColor=none;top=0;left=0;bottom=0;right=0;pointerEvents=1;fontSize=24;" parent="332" vertex="1">
                    <mxGeometry x="160" width="40" height="36" as="geometry">
                        <mxRectangle width="40" height="36" as="alternateBounds"/>
                    </mxGeometry>
                </mxCell>
                <mxCell id="338" value="" style="shape=tableRow;horizontal=0;startSize=0;swimlaneHead=0;swimlaneBody=0;top=0;left=0;bottom=0;right=0;collapsible=0;dropTarget=0;fillColor=none;points=[[0,0.5],[1,0.5]];portConstraint=eastwest;fontSize=24;" parent="313" vertex="1">
                    <mxGeometry y="143" width="200" height="34" as="geometry"/>
                </mxCell>
                <mxCell id="339" value="" style="shape=partialRectangle;html=1;whiteSpace=wrap;connectable=0;overflow=hidden;fillColor=none;top=0;left=0;bottom=0;right=0;pointerEvents=1;fontSize=24;" parent="338" vertex="1">
                    <mxGeometry width="40" height="34" as="geometry">
                        <mxRectangle width="40" height="34" as="alternateBounds"/>
                    </mxGeometry>
                </mxCell>
                <mxCell id="340" value="" style="shape=partialRectangle;html=1;whiteSpace=wrap;connectable=0;overflow=hidden;fillColor=none;top=0;left=0;bottom=0;right=0;pointerEvents=1;fontSize=24;" parent="338" vertex="1">
                    <mxGeometry x="40" width="40" height="34" as="geometry">
                        <mxRectangle width="40" height="34" as="alternateBounds"/>
                    </mxGeometry>
                </mxCell>
                <mxCell id="341" value="" style="shape=partialRectangle;html=1;whiteSpace=wrap;connectable=0;overflow=hidden;fillColor=none;top=0;left=0;bottom=0;right=0;pointerEvents=1;fontSize=24;" parent="338" vertex="1">
                    <mxGeometry x="80" width="40" height="34" as="geometry">
                        <mxRectangle width="40" height="34" as="alternateBounds"/>
                    </mxGeometry>
                </mxCell>
                <mxCell id="342" value="" style="shape=partialRectangle;html=1;whiteSpace=wrap;connectable=0;overflow=hidden;fillColor=none;top=0;left=0;bottom=0;right=0;pointerEvents=1;fontSize=24;" parent="338" vertex="1">
                    <mxGeometry x="120" width="40" height="34" as="geometry">
                        <mxRectangle width="40" height="34" as="alternateBounds"/>
                    </mxGeometry>
                </mxCell>
                <mxCell id="343" value="" style="shape=partialRectangle;html=1;whiteSpace=wrap;connectable=0;overflow=hidden;fillColor=none;top=0;left=0;bottom=0;right=0;pointerEvents=1;fontSize=24;" parent="338" vertex="1">
                    <mxGeometry x="160" width="40" height="34" as="geometry">
                        <mxRectangle width="40" height="34" as="alternateBounds"/>
                    </mxGeometry>
                </mxCell>
                <mxCell id="344" value="" style="shape=tableRow;horizontal=0;startSize=0;swimlaneHead=0;swimlaneBody=0;top=0;left=0;bottom=0;right=0;collapsible=0;dropTarget=0;fillColor=none;points=[[0,0.5],[1,0.5]];portConstraint=eastwest;fontSize=24;" parent="313" vertex="1">
                    <mxGeometry y="177" width="200" height="36" as="geometry"/>
                </mxCell>
                <mxCell id="345" value="" style="shape=partialRectangle;html=1;whiteSpace=wrap;connectable=0;overflow=hidden;fillColor=none;top=0;left=0;bottom=0;right=0;pointerEvents=1;fontSize=24;" parent="344" vertex="1">
                    <mxGeometry width="40" height="36" as="geometry">
                        <mxRectangle width="40" height="36" as="alternateBounds"/>
                    </mxGeometry>
                </mxCell>
                <mxCell id="346" value="" style="shape=partialRectangle;html=1;whiteSpace=wrap;connectable=0;overflow=hidden;fillColor=none;top=0;left=0;bottom=0;right=0;pointerEvents=1;fontSize=24;" parent="344" vertex="1">
                    <mxGeometry x="40" width="40" height="36" as="geometry">
                        <mxRectangle width="40" height="36" as="alternateBounds"/>
                    </mxGeometry>
                </mxCell>
                <mxCell id="347" value="" style="shape=partialRectangle;html=1;whiteSpace=wrap;connectable=0;overflow=hidden;fillColor=none;top=0;left=0;bottom=0;right=0;pointerEvents=1;fontSize=24;" parent="344" vertex="1">
                    <mxGeometry x="80" width="40" height="36" as="geometry">
                        <mxRectangle width="40" height="36" as="alternateBounds"/>
                    </mxGeometry>
                </mxCell>
                <mxCell id="348" value="" style="shape=partialRectangle;html=1;whiteSpace=wrap;connectable=0;overflow=hidden;fillColor=none;top=0;left=0;bottom=0;right=0;pointerEvents=1;fontSize=24;" parent="344" vertex="1">
                    <mxGeometry x="120" width="40" height="36" as="geometry">
                        <mxRectangle width="40" height="36" as="alternateBounds"/>
                    </mxGeometry>
                </mxCell>
                <mxCell id="349" value="" style="shape=partialRectangle;html=1;whiteSpace=wrap;connectable=0;overflow=hidden;fillColor=none;top=0;left=0;bottom=0;right=0;pointerEvents=1;fontSize=24;" parent="344" vertex="1">
                    <mxGeometry x="160" width="40" height="36" as="geometry">
                        <mxRectangle width="40" height="36" as="alternateBounds"/>
                    </mxGeometry>
                </mxCell>
                <mxCell id="350" value="" style="shape=tableRow;horizontal=0;startSize=0;swimlaneHead=0;swimlaneBody=0;top=0;left=0;bottom=0;right=0;collapsible=0;dropTarget=0;fillColor=none;points=[[0,0.5],[1,0.5]];portConstraint=eastwest;fontSize=24;" parent="313" vertex="1">
                    <mxGeometry y="213" width="200" height="36" as="geometry"/>
                </mxCell>
                <mxCell id="351" value="" style="shape=partialRectangle;html=1;whiteSpace=wrap;connectable=0;overflow=hidden;fillColor=none;top=0;left=0;bottom=0;right=0;pointerEvents=1;fontSize=24;" parent="350" vertex="1">
                    <mxGeometry width="40" height="36" as="geometry">
                        <mxRectangle width="40" height="36" as="alternateBounds"/>
                    </mxGeometry>
                </mxCell>
                <mxCell id="352" value="" style="shape=partialRectangle;html=1;whiteSpace=wrap;connectable=0;overflow=hidden;fillColor=none;top=0;left=0;bottom=0;right=0;pointerEvents=1;fontSize=24;" parent="350" vertex="1">
                    <mxGeometry x="40" width="40" height="36" as="geometry">
                        <mxRectangle width="40" height="36" as="alternateBounds"/>
                    </mxGeometry>
                </mxCell>
                <mxCell id="353" value="" style="shape=partialRectangle;html=1;whiteSpace=wrap;connectable=0;overflow=hidden;fillColor=none;top=0;left=0;bottom=0;right=0;pointerEvents=1;fontSize=24;" parent="350" vertex="1">
                    <mxGeometry x="80" width="40" height="36" as="geometry">
                        <mxRectangle width="40" height="36" as="alternateBounds"/>
                    </mxGeometry>
                </mxCell>
                <mxCell id="354" value="" style="shape=partialRectangle;html=1;whiteSpace=wrap;connectable=0;overflow=hidden;fillColor=none;top=0;left=0;bottom=0;right=0;pointerEvents=1;fontSize=24;" parent="350" vertex="1">
                    <mxGeometry x="120" width="40" height="36" as="geometry">
                        <mxRectangle width="40" height="36" as="alternateBounds"/>
                    </mxGeometry>
                </mxCell>
                <mxCell id="355" value="" style="shape=partialRectangle;html=1;whiteSpace=wrap;connectable=0;overflow=hidden;fillColor=none;top=0;left=0;bottom=0;right=0;pointerEvents=1;fontSize=24;" parent="350" vertex="1">
                    <mxGeometry x="160" width="40" height="36" as="geometry">
                        <mxRectangle width="40" height="36" as="alternateBounds"/>
                    </mxGeometry>
                </mxCell>
                <mxCell id="356" value="" style="shape=tableRow;horizontal=0;startSize=0;swimlaneHead=0;swimlaneBody=0;top=0;left=0;bottom=0;right=0;collapsible=0;dropTarget=0;fillColor=none;points=[[0,0.5],[1,0.5]];portConstraint=eastwest;fontSize=24;" parent="313" vertex="1">
                    <mxGeometry y="249" width="200" height="36" as="geometry"/>
                </mxCell>
                <mxCell id="357" value="" style="shape=partialRectangle;html=1;whiteSpace=wrap;connectable=0;overflow=hidden;fillColor=none;top=0;left=0;bottom=0;right=0;pointerEvents=1;fontSize=24;" parent="356" vertex="1">
                    <mxGeometry width="40" height="36" as="geometry">
                        <mxRectangle width="40" height="36" as="alternateBounds"/>
                    </mxGeometry>
                </mxCell>
                <mxCell id="358" value="" style="shape=partialRectangle;html=1;whiteSpace=wrap;connectable=0;overflow=hidden;fillColor=none;top=0;left=0;bottom=0;right=0;pointerEvents=1;fontSize=24;" parent="356" vertex="1">
                    <mxGeometry x="40" width="40" height="36" as="geometry">
                        <mxRectangle width="40" height="36" as="alternateBounds"/>
                    </mxGeometry>
                </mxCell>
                <mxCell id="359" value="" style="shape=partialRectangle;html=1;whiteSpace=wrap;connectable=0;overflow=hidden;fillColor=none;top=0;left=0;bottom=0;right=0;pointerEvents=1;fontSize=24;" parent="356" vertex="1">
                    <mxGeometry x="80" width="40" height="36" as="geometry">
                        <mxRectangle width="40" height="36" as="alternateBounds"/>
                    </mxGeometry>
                </mxCell>
                <mxCell id="360" value="" style="shape=partialRectangle;html=1;whiteSpace=wrap;connectable=0;overflow=hidden;fillColor=none;top=0;left=0;bottom=0;right=0;pointerEvents=1;fontSize=24;" parent="356" vertex="1">
                    <mxGeometry x="120" width="40" height="36" as="geometry">
                        <mxRectangle width="40" height="36" as="alternateBounds"/>
                    </mxGeometry>
                </mxCell>
                <mxCell id="361" value="" style="shape=partialRectangle;html=1;whiteSpace=wrap;connectable=0;overflow=hidden;fillColor=none;top=0;left=0;bottom=0;right=0;pointerEvents=1;fontSize=24;" parent="356" vertex="1">
                    <mxGeometry x="160" width="40" height="36" as="geometry">
                        <mxRectangle width="40" height="36" as="alternateBounds"/>
                    </mxGeometry>
                </mxCell>
                <mxCell id="362" value="" style="shape=tableRow;horizontal=0;startSize=0;swimlaneHead=0;swimlaneBody=0;top=0;left=0;bottom=0;right=0;collapsible=0;dropTarget=0;fillColor=none;points=[[0,0.5],[1,0.5]];portConstraint=eastwest;fontSize=24;" parent="313" vertex="1">
                    <mxGeometry y="285" width="200" height="35" as="geometry"/>
                </mxCell>
                <mxCell id="363" value="" style="shape=partialRectangle;html=1;whiteSpace=wrap;connectable=0;overflow=hidden;fillColor=none;top=0;left=0;bottom=0;right=0;pointerEvents=1;fontSize=24;" parent="362" vertex="1">
                    <mxGeometry width="40" height="35" as="geometry">
                        <mxRectangle width="40" height="35" as="alternateBounds"/>
                    </mxGeometry>
                </mxCell>
                <mxCell id="364" value="" style="shape=partialRectangle;html=1;whiteSpace=wrap;connectable=0;overflow=hidden;fillColor=none;top=0;left=0;bottom=0;right=0;pointerEvents=1;fontSize=24;" parent="362" vertex="1">
                    <mxGeometry x="40" width="40" height="35" as="geometry">
                        <mxRectangle width="40" height="35" as="alternateBounds"/>
                    </mxGeometry>
                </mxCell>
                <mxCell id="365" value="" style="shape=partialRectangle;html=1;whiteSpace=wrap;connectable=0;overflow=hidden;fillColor=none;top=0;left=0;bottom=0;right=0;pointerEvents=1;fontSize=24;" parent="362" vertex="1">
                    <mxGeometry x="80" width="40" height="35" as="geometry">
                        <mxRectangle width="40" height="35" as="alternateBounds"/>
                    </mxGeometry>
                </mxCell>
                <mxCell id="366" value="" style="shape=partialRectangle;html=1;whiteSpace=wrap;connectable=0;overflow=hidden;fillColor=none;top=0;left=0;bottom=0;right=0;pointerEvents=1;fontSize=24;" parent="362" vertex="1">
                    <mxGeometry x="120" width="40" height="35" as="geometry">
                        <mxRectangle width="40" height="35" as="alternateBounds"/>
                    </mxGeometry>
                </mxCell>
                <mxCell id="367" value="" style="shape=partialRectangle;html=1;whiteSpace=wrap;connectable=0;overflow=hidden;fillColor=none;top=0;left=0;bottom=0;right=0;pointerEvents=1;fontSize=24;" parent="362" vertex="1">
                    <mxGeometry x="160" width="40" height="35" as="geometry">
                        <mxRectangle width="40" height="35" as="alternateBounds"/>
                    </mxGeometry>
                </mxCell>
                <mxCell id="368" value="" style="shape=table;startSize=0;container=1;collapsible=0;childLayout=tableLayout;fontSize=24;" parent="1" vertex="1">
                    <mxGeometry x="440" y="120" width="200" height="320" as="geometry"/>
                </mxCell>
                <mxCell id="369" value="" style="shape=tableRow;horizontal=0;startSize=0;swimlaneHead=0;swimlaneBody=0;top=0;left=0;bottom=0;right=0;collapsible=0;dropTarget=0;fillColor=none;points=[[0,0.5],[1,0.5]];portConstraint=eastwest;fontSize=24;" parent="368" vertex="1">
                    <mxGeometry width="200" height="35" as="geometry"/>
                </mxCell>
                <mxCell id="370" value="A" style="shape=partialRectangle;html=1;whiteSpace=wrap;connectable=0;overflow=hidden;fillColor=#647687;top=0;left=0;bottom=0;right=0;pointerEvents=1;fontSize=24;fontColor=#ffffff;strokeColor=#314354;" parent="369" vertex="1">
                    <mxGeometry width="40" height="35" as="geometry">
                        <mxRectangle width="40" height="35" as="alternateBounds"/>
                    </mxGeometry>
                </mxCell>
                <mxCell id="371" value="R" style="shape=partialRectangle;html=1;whiteSpace=wrap;connectable=0;overflow=hidden;fillColor=#647687;top=0;left=0;bottom=0;right=0;pointerEvents=1;fontSize=24;fontColor=#ffffff;strokeColor=#314354;" parent="369" vertex="1">
                    <mxGeometry x="40" width="40" height="35" as="geometry">
                        <mxRectangle width="40" height="35" as="alternateBounds"/>
                    </mxGeometry>
                </mxCell>
                <mxCell id="372" value="I" style="shape=partialRectangle;html=1;whiteSpace=wrap;connectable=0;overflow=hidden;fillColor=#e3c800;top=0;left=0;bottom=0;right=0;pointerEvents=1;fontSize=24;fontColor=#000000;strokeColor=#B09500;" parent="369" vertex="1">
                    <mxGeometry x="80" width="40" height="35" as="geometry">
                        <mxRectangle width="40" height="35" as="alternateBounds"/>
                    </mxGeometry>
                </mxCell>
                <mxCell id="373" value="S" style="shape=partialRectangle;html=1;whiteSpace=wrap;connectable=0;overflow=hidden;fillColor=#647687;top=0;left=0;bottom=0;right=0;pointerEvents=1;fontSize=24;fontColor=#ffffff;strokeColor=#314354;" parent="369" vertex="1">
                    <mxGeometry x="120" width="40" height="35" as="geometry">
                        <mxRectangle width="40" height="35" as="alternateBounds"/>
                    </mxGeometry>
                </mxCell>
                <mxCell id="374" value="E" style="shape=partialRectangle;html=1;whiteSpace=wrap;connectable=0;overflow=hidden;fillColor=#60a917;top=0;left=0;bottom=0;right=0;pointerEvents=1;fontSize=24;fontColor=#ffffff;strokeColor=#2D7600;" parent="369" vertex="1">
                    <mxGeometry x="160" width="40" height="35" as="geometry">
                        <mxRectangle width="40" height="35" as="alternateBounds"/>
                    </mxGeometry>
                </mxCell>
                <mxCell id="375" value="" style="shape=tableRow;horizontal=0;startSize=0;swimlaneHead=0;swimlaneBody=0;top=0;left=0;bottom=0;right=0;collapsible=0;dropTarget=0;fillColor=none;points=[[0,0.5],[1,0.5]];portConstraint=eastwest;fontSize=24;" parent="368" vertex="1">
                    <mxGeometry y="35" width="200" height="36" as="geometry"/>
                </mxCell>
                <mxCell id="376" value="C" style="shape=partialRectangle;html=1;whiteSpace=wrap;connectable=0;overflow=hidden;fillColor=#647687;top=0;left=0;bottom=0;right=0;pointerEvents=1;fontSize=24;fontColor=#ffffff;strokeColor=#314354;" parent="375" vertex="1">
                    <mxGeometry width="40" height="36" as="geometry">
                        <mxRectangle width="40" height="36" as="alternateBounds"/>
                    </mxGeometry>
                </mxCell>
                <mxCell id="377" value="L" style="shape=partialRectangle;html=1;whiteSpace=wrap;connectable=0;overflow=hidden;fillColor=#e3c800;top=0;left=0;bottom=0;right=0;pointerEvents=1;fontSize=24;fontColor=#000000;strokeColor=#B09500;" parent="375" vertex="1">
                    <mxGeometry x="40" width="40" height="36" as="geometry">
                        <mxRectangle width="40" height="36" as="alternateBounds"/>
                    </mxGeometry>
                </mxCell>
                <mxCell id="378" value="O" style="shape=partialRectangle;html=1;whiteSpace=wrap;connectable=0;overflow=hidden;fillColor=#647687;top=0;left=0;bottom=0;right=0;pointerEvents=1;fontSize=24;fontColor=#ffffff;strokeColor=#314354;" parent="375" vertex="1">
                    <mxGeometry x="80" width="40" height="36" as="geometry">
                        <mxRectangle width="40" height="36" as="alternateBounds"/>
                    </mxGeometry>
                </mxCell>
                <mxCell id="379" value="U" style="shape=partialRectangle;html=1;whiteSpace=wrap;connectable=0;overflow=hidden;fillColor=#647687;top=0;left=0;bottom=0;right=0;pointerEvents=1;fontSize=24;fontColor=#ffffff;strokeColor=#314354;" parent="375" vertex="1">
                    <mxGeometry x="120" width="40" height="36" as="geometry">
                        <mxRectangle width="40" height="36" as="alternateBounds"/>
                    </mxGeometry>
                </mxCell>
                <mxCell id="380" value="T" style="shape=partialRectangle;html=1;whiteSpace=wrap;connectable=0;overflow=hidden;fillColor=#e3c800;top=0;left=0;bottom=0;right=0;pointerEvents=1;fontSize=24;fontColor=#000000;strokeColor=#B09500;" parent="375" vertex="1">
                    <mxGeometry x="160" width="40" height="36" as="geometry">
                        <mxRectangle width="40" height="36" as="alternateBounds"/>
                    </mxGeometry>
                </mxCell>
                <mxCell id="381" value="" style="shape=tableRow;horizontal=0;startSize=0;swimlaneHead=0;swimlaneBody=0;top=0;left=0;bottom=0;right=0;collapsible=0;dropTarget=0;fillColor=none;points=[[0,0.5],[1,0.5]];portConstraint=eastwest;fontSize=24;" parent="368" vertex="1">
                    <mxGeometry y="71" width="200" height="36" as="geometry"/>
                </mxCell>
                <mxCell id="382" value="C" style="shape=partialRectangle;html=1;whiteSpace=wrap;connectable=0;overflow=hidden;fillColor=#647687;top=0;left=0;bottom=0;right=0;pointerEvents=1;fontSize=24;fontColor=#ffffff;strokeColor=#314354;" parent="381" vertex="1">
                    <mxGeometry width="40" height="36" as="geometry">
                        <mxRectangle width="40" height="36" as="alternateBounds"/>
                    </mxGeometry>
                </mxCell>
                <mxCell id="383" value="A" style="shape=partialRectangle;html=1;whiteSpace=wrap;connectable=0;overflow=hidden;fillColor=#647687;top=0;left=0;bottom=0;right=0;pointerEvents=1;fontSize=24;fontColor=#ffffff;strokeColor=#314354;" parent="381" vertex="1">
                    <mxGeometry x="40" width="40" height="36" as="geometry">
                        <mxRectangle width="40" height="36" as="alternateBounds"/>
                    </mxGeometry>
                </mxCell>
                <mxCell id="384" value="R" style="shape=partialRectangle;html=1;whiteSpace=wrap;connectable=0;overflow=hidden;fillColor=#647687;top=0;left=0;bottom=0;right=0;pointerEvents=1;fontSize=24;fontColor=#ffffff;strokeColor=#314354;" parent="381" vertex="1">
                    <mxGeometry x="80" width="40" height="36" as="geometry">
                        <mxRectangle width="40" height="36" as="alternateBounds"/>
                    </mxGeometry>
                </mxCell>
                <mxCell id="385" value="V" style="shape=partialRectangle;html=1;whiteSpace=wrap;connectable=0;overflow=hidden;fillColor=#647687;top=0;left=0;bottom=0;right=0;pointerEvents=1;fontSize=24;fontColor=#ffffff;strokeColor=#314354;" parent="381" vertex="1">
                    <mxGeometry x="120" width="40" height="36" as="geometry">
                        <mxRectangle width="40" height="36" as="alternateBounds"/>
                    </mxGeometry>
                </mxCell>
                <mxCell id="386" value="E" style="shape=partialRectangle;html=1;whiteSpace=wrap;connectable=0;overflow=hidden;fillColor=#60a917;top=0;left=0;bottom=0;right=0;pointerEvents=1;fontSize=24;fontColor=#ffffff;strokeColor=#2D7600;" parent="381" vertex="1">
                    <mxGeometry x="160" width="40" height="36" as="geometry">
                        <mxRectangle width="40" height="36" as="alternateBounds"/>
                    </mxGeometry>
                </mxCell>
                <mxCell id="387" value="" style="shape=tableRow;horizontal=0;startSize=0;swimlaneHead=0;swimlaneBody=0;top=0;left=0;bottom=0;right=0;collapsible=0;dropTarget=0;fillColor=none;points=[[0,0.5],[1,0.5]];portConstraint=eastwest;fontSize=24;" parent="368" vertex="1">
                    <mxGeometry y="107" width="200" height="36" as="geometry"/>
                </mxCell>
                <mxCell id="388" value="S" style="shape=partialRectangle;html=1;whiteSpace=wrap;connectable=0;overflow=hidden;fillColor=#647687;top=0;left=0;bottom=0;right=0;pointerEvents=1;fontSize=24;fontColor=#ffffff;strokeColor=#314354;" parent="387" vertex="1">
                    <mxGeometry width="40" height="36" as="geometry">
                        <mxRectangle width="40" height="36" as="alternateBounds"/>
                    </mxGeometry>
                </mxCell>
                <mxCell id="389" value="T" style="shape=partialRectangle;html=1;whiteSpace=wrap;connectable=0;overflow=hidden;fillColor=#e3c800;top=0;left=0;bottom=0;right=0;pointerEvents=1;fontSize=24;fontColor=#000000;strokeColor=#B09500;" parent="387" vertex="1">
                    <mxGeometry x="40" width="40" height="36" as="geometry">
                        <mxRectangle width="40" height="36" as="alternateBounds"/>
                    </mxGeometry>
                </mxCell>
                <mxCell id="390" value="R" style="shape=partialRectangle;html=1;whiteSpace=wrap;connectable=0;overflow=hidden;fillColor=#647687;top=0;left=0;bottom=0;right=0;pointerEvents=1;fontSize=24;fontColor=#ffffff;strokeColor=#314354;" parent="387" vertex="1">
                    <mxGeometry x="80" width="40" height="36" as="geometry">
                        <mxRectangle width="40" height="36" as="alternateBounds"/>
                    </mxGeometry>
                </mxCell>
                <mxCell id="391" value="A" style="shape=partialRectangle;html=1;whiteSpace=wrap;connectable=0;overflow=hidden;fillColor=#647687;top=0;left=0;bottom=0;right=0;pointerEvents=1;fontSize=24;fontColor=#ffffff;strokeColor=#314354;" parent="387" vertex="1">
                    <mxGeometry x="120" width="40" height="36" as="geometry">
                        <mxRectangle width="40" height="36" as="alternateBounds"/>
                    </mxGeometry>
                </mxCell>
                <mxCell id="392" value="W" style="shape=partialRectangle;html=1;whiteSpace=wrap;connectable=0;overflow=hidden;fillColor=#647687;top=0;left=0;bottom=0;right=0;pointerEvents=1;fontSize=24;fontColor=#ffffff;strokeColor=#314354;" parent="387" vertex="1">
                    <mxGeometry x="160" width="40" height="36" as="geometry">
                        <mxRectangle width="40" height="36" as="alternateBounds"/>
                    </mxGeometry>
                </mxCell>
                <mxCell id="393" value="" style="shape=tableRow;horizontal=0;startSize=0;swimlaneHead=0;swimlaneBody=0;top=0;left=0;bottom=0;right=0;collapsible=0;dropTarget=0;fillColor=none;points=[[0,0.5],[1,0.5]];portConstraint=eastwest;fontSize=24;" parent="368" vertex="1">
                    <mxGeometry y="143" width="200" height="34" as="geometry"/>
                </mxCell>
                <mxCell id="394" value="L" style="shape=partialRectangle;html=1;whiteSpace=wrap;connectable=0;overflow=hidden;fillColor=#e3c800;top=0;left=0;bottom=0;right=0;pointerEvents=1;fontSize=24;fontColor=#000000;strokeColor=#B09500;" parent="393" vertex="1">
                    <mxGeometry width="40" height="34" as="geometry">
                        <mxRectangle width="40" height="34" as="alternateBounds"/>
                    </mxGeometry>
                </mxCell>
                <mxCell id="395" value="I" style="shape=partialRectangle;html=1;whiteSpace=wrap;connectable=0;overflow=hidden;fillColor=#60a917;top=0;left=0;bottom=0;right=0;pointerEvents=1;fontSize=24;fontColor=#ffffff;strokeColor=#2D7600;" parent="393" vertex="1">
                    <mxGeometry x="40" width="40" height="34" as="geometry">
                        <mxRectangle width="40" height="34" as="alternateBounds"/>
                    </mxGeometry>
                </mxCell>
                <mxCell id="396" value="T" style="shape=partialRectangle;html=1;whiteSpace=wrap;connectable=0;overflow=hidden;fillColor=#e3c800;top=0;left=0;bottom=0;right=0;pointerEvents=1;fontSize=24;fontColor=#000000;strokeColor=#B09500;" parent="393" vertex="1">
                    <mxGeometry x="80" width="40" height="34" as="geometry">
                        <mxRectangle width="40" height="34" as="alternateBounds"/>
                    </mxGeometry>
                </mxCell>
                <mxCell id="397" value="H" style="shape=partialRectangle;html=1;whiteSpace=wrap;connectable=0;overflow=hidden;fillColor=#647687;top=0;left=0;bottom=0;right=0;pointerEvents=1;fontSize=24;fontColor=#ffffff;strokeColor=#314354;" parent="393" vertex="1">
                    <mxGeometry x="120" width="40" height="34" as="geometry">
                        <mxRectangle width="40" height="34" as="alternateBounds"/>
                    </mxGeometry>
                </mxCell>
                <mxCell id="398" value="E" style="shape=partialRectangle;html=1;whiteSpace=wrap;connectable=0;overflow=hidden;fillColor=#e3c800;top=0;left=0;bottom=0;right=0;pointerEvents=1;fontSize=24;fontColor=#000000;strokeColor=#B09500;" parent="393" vertex="1">
                    <mxGeometry x="160" width="40" height="34" as="geometry">
                        <mxRectangle width="40" height="34" as="alternateBounds"/>
                    </mxGeometry>
                </mxCell>
                <mxCell id="399" value="" style="shape=tableRow;horizontal=0;startSize=0;swimlaneHead=0;swimlaneBody=0;top=0;left=0;bottom=0;right=0;collapsible=0;dropTarget=0;fillColor=none;points=[[0,0.5],[1,0.5]];portConstraint=eastwest;fontSize=24;" parent="368" vertex="1">
                    <mxGeometry y="177" width="200" height="36" as="geometry"/>
                </mxCell>
                <mxCell id="400" value="M" style="shape=partialRectangle;html=1;whiteSpace=wrap;connectable=0;overflow=hidden;fillColor=#647687;top=0;left=0;bottom=0;right=0;pointerEvents=1;fontSize=24;fontColor=#ffffff;strokeColor=#314354;" parent="399" vertex="1">
                    <mxGeometry width="40" height="36" as="geometry">
                        <mxRectangle width="40" height="36" as="alternateBounds"/>
                    </mxGeometry>
                </mxCell>
                <mxCell id="401" value="I" style="shape=partialRectangle;html=1;whiteSpace=wrap;connectable=0;overflow=hidden;fillColor=#60a917;top=0;left=0;bottom=0;right=0;pointerEvents=1;fontSize=24;fontColor=#ffffff;strokeColor=#2D7600;" parent="399" vertex="1">
                    <mxGeometry x="40" width="40" height="36" as="geometry">
                        <mxRectangle width="40" height="36" as="alternateBounds"/>
                    </mxGeometry>
                </mxCell>
                <mxCell id="402" value="N" style="shape=partialRectangle;html=1;whiteSpace=wrap;connectable=0;overflow=hidden;fillColor=#647687;top=0;left=0;bottom=0;right=0;pointerEvents=1;fontSize=24;fontColor=#ffffff;strokeColor=#314354;" parent="399" vertex="1">
                    <mxGeometry x="80" width="40" height="36" as="geometry">
                        <mxRectangle width="40" height="36" as="alternateBounds"/>
                    </mxGeometry>
                </mxCell>
                <mxCell id="403" value="E" style="shape=partialRectangle;html=1;whiteSpace=wrap;connectable=0;overflow=hidden;fillColor=#647687;top=0;left=0;bottom=0;right=0;pointerEvents=1;fontSize=24;fontColor=#ffffff;strokeColor=#314354;" parent="399" vertex="1">
                    <mxGeometry x="120" width="40" height="36" as="geometry">
                        <mxRectangle width="40" height="36" as="alternateBounds"/>
                    </mxGeometry>
                </mxCell>
                <mxCell id="404" value="R" style="shape=partialRectangle;html=1;whiteSpace=wrap;connectable=0;overflow=hidden;fillColor=#647687;top=0;left=0;bottom=0;right=0;pointerEvents=1;fontSize=24;fontColor=#ffffff;strokeColor=#314354;" parent="399" vertex="1">
                    <mxGeometry x="160" width="40" height="36" as="geometry">
                        <mxRectangle width="40" height="36" as="alternateBounds"/>
                    </mxGeometry>
                </mxCell>
                <mxCell id="405" value="" style="shape=tableRow;horizontal=0;startSize=0;swimlaneHead=0;swimlaneBody=0;top=0;left=0;bottom=0;right=0;collapsible=0;dropTarget=0;fillColor=none;points=[[0,0.5],[1,0.5]];portConstraint=eastwest;fontSize=24;" parent="368" vertex="1">
                    <mxGeometry y="213" width="200" height="36" as="geometry"/>
                </mxCell>
                <mxCell id="406" value="T" style="shape=partialRectangle;html=1;whiteSpace=wrap;connectable=0;overflow=hidden;fillColor=#60a917;top=0;left=0;bottom=0;right=0;pointerEvents=1;fontSize=24;fontColor=#ffffff;strokeColor=#2D7600;" parent="405" vertex="1">
                    <mxGeometry width="40" height="36" as="geometry">
                        <mxRectangle width="40" height="36" as="alternateBounds"/>
                    </mxGeometry>
                </mxCell>
                <mxCell id="407" value="I" style="shape=partialRectangle;html=1;whiteSpace=wrap;connectable=0;overflow=hidden;fillColor=#60a917;top=0;left=0;bottom=0;right=0;pointerEvents=1;fontSize=24;fontColor=#ffffff;strokeColor=#2D7600;" parent="405" vertex="1">
                    <mxGeometry x="40" width="40" height="36" as="geometry">
                        <mxRectangle width="40" height="36" as="alternateBounds"/>
                    </mxGeometry>
                </mxCell>
                <mxCell id="408" value="T" style="shape=partialRectangle;html=1;whiteSpace=wrap;connectable=0;overflow=hidden;fillColor=#647687;top=0;left=0;bottom=0;right=0;pointerEvents=1;fontSize=24;fontColor=#ffffff;strokeColor=#314354;" parent="405" vertex="1">
                    <mxGeometry x="80" width="40" height="36" as="geometry">
                        <mxRectangle width="40" height="36" as="alternateBounds"/>
                    </mxGeometry>
                </mxCell>
                <mxCell id="409" value="L" style="shape=partialRectangle;html=1;whiteSpace=wrap;connectable=0;overflow=hidden;fillColor=#e3c800;top=0;left=0;bottom=0;right=0;pointerEvents=1;fontSize=24;fontColor=#000000;strokeColor=#B09500;" parent="405" vertex="1">
                    <mxGeometry x="120" width="40" height="36" as="geometry">
                        <mxRectangle width="40" height="36" as="alternateBounds"/>
                    </mxGeometry>
                </mxCell>
                <mxCell id="410" value="E" style="shape=partialRectangle;html=1;whiteSpace=wrap;connectable=0;overflow=hidden;fillColor=#60a917;top=0;left=0;bottom=0;right=0;pointerEvents=1;fontSize=24;fontColor=#ffffff;strokeColor=#2D7600;" parent="405" vertex="1">
                    <mxGeometry x="160" width="40" height="36" as="geometry">
                        <mxRectangle width="40" height="36" as="alternateBounds"/>
                    </mxGeometry>
                </mxCell>
                <mxCell id="411" value="" style="shape=tableRow;horizontal=0;startSize=0;swimlaneHead=0;swimlaneBody=0;top=0;left=0;bottom=0;right=0;collapsible=0;dropTarget=0;fillColor=none;points=[[0,0.5],[1,0.5]];portConstraint=eastwest;fontSize=24;" parent="368" vertex="1">
                    <mxGeometry y="249" width="200" height="36" as="geometry"/>
                </mxCell>
                <mxCell id="412" value="T" style="shape=partialRectangle;html=1;whiteSpace=wrap;connectable=0;overflow=hidden;fillColor=#60a917;top=0;left=0;bottom=0;right=0;pointerEvents=1;fontSize=24;fontColor=#ffffff;strokeColor=#2D7600;" parent="411" vertex="1">
                    <mxGeometry width="40" height="36" as="geometry">
                        <mxRectangle width="40" height="36" as="alternateBounds"/>
                    </mxGeometry>
                </mxCell>
                <mxCell id="413" value="I" style="shape=partialRectangle;html=1;whiteSpace=wrap;connectable=0;overflow=hidden;fillColor=#60a917;top=0;left=0;bottom=0;right=0;pointerEvents=1;fontSize=24;fontColor=#ffffff;strokeColor=#2D7600;" parent="411" vertex="1">
                    <mxGeometry x="40" width="40" height="36" as="geometry">
                        <mxRectangle width="40" height="36" as="alternateBounds"/>
                    </mxGeometry>
                </mxCell>
                <mxCell id="414" value="L" style="shape=partialRectangle;html=1;whiteSpace=wrap;connectable=0;overflow=hidden;fillColor=#60a917;top=0;left=0;bottom=0;right=0;pointerEvents=1;fontSize=24;fontColor=#ffffff;strokeColor=#2D7600;" parent="411" vertex="1">
                    <mxGeometry x="80" width="40" height="36" as="geometry">
                        <mxRectangle width="40" height="36" as="alternateBounds"/>
                    </mxGeometry>
                </mxCell>
                <mxCell id="415" value="D" style="shape=partialRectangle;html=1;whiteSpace=wrap;connectable=0;overflow=hidden;fillColor=#60a917;top=0;left=0;bottom=0;right=0;pointerEvents=1;fontSize=24;fontColor=#ffffff;strokeColor=#2D7600;" parent="411" vertex="1">
                    <mxGeometry x="120" width="40" height="36" as="geometry">
                        <mxRectangle width="40" height="36" as="alternateBounds"/>
                    </mxGeometry>
                </mxCell>
                <mxCell id="416" value="E" style="shape=partialRectangle;html=1;whiteSpace=wrap;connectable=0;overflow=hidden;fillColor=#60a917;top=0;left=0;bottom=0;right=0;pointerEvents=1;fontSize=24;fontColor=#ffffff;strokeColor=#2D7600;" parent="411" vertex="1">
                    <mxGeometry x="160" width="40" height="36" as="geometry">
                        <mxRectangle width="40" height="36" as="alternateBounds"/>
                    </mxGeometry>
                </mxCell>
                <mxCell id="417" value="" style="shape=tableRow;horizontal=0;startSize=0;swimlaneHead=0;swimlaneBody=0;top=0;left=0;bottom=0;right=0;collapsible=0;dropTarget=0;fillColor=none;points=[[0,0.5],[1,0.5]];portConstraint=eastwest;fontSize=24;" parent="368" vertex="1">
                    <mxGeometry y="285" width="200" height="35" as="geometry"/>
                </mxCell>
                <mxCell id="418" value="" style="shape=partialRectangle;html=1;whiteSpace=wrap;connectable=0;overflow=hidden;fillColor=none;top=0;left=0;bottom=0;right=0;pointerEvents=1;fontSize=24;" parent="417" vertex="1">
                    <mxGeometry width="40" height="35" as="geometry">
                        <mxRectangle width="40" height="35" as="alternateBounds"/>
                    </mxGeometry>
                </mxCell>
                <mxCell id="419" value="" style="shape=partialRectangle;html=1;whiteSpace=wrap;connectable=0;overflow=hidden;fillColor=none;top=0;left=0;bottom=0;right=0;pointerEvents=1;fontSize=24;" parent="417" vertex="1">
                    <mxGeometry x="40" width="40" height="35" as="geometry">
                        <mxRectangle width="40" height="35" as="alternateBounds"/>
                    </mxGeometry>
                </mxCell>
                <mxCell id="420" value="" style="shape=partialRectangle;html=1;whiteSpace=wrap;connectable=0;overflow=hidden;fillColor=none;top=0;left=0;bottom=0;right=0;pointerEvents=1;fontSize=24;" parent="417" vertex="1">
                    <mxGeometry x="80" width="40" height="35" as="geometry">
                        <mxRectangle width="40" height="35" as="alternateBounds"/>
                    </mxGeometry>
                </mxCell>
                <mxCell id="421" value="" style="shape=partialRectangle;html=1;whiteSpace=wrap;connectable=0;overflow=hidden;fillColor=none;top=0;left=0;bottom=0;right=0;pointerEvents=1;fontSize=24;" parent="417" vertex="1">
                    <mxGeometry x="120" width="40" height="35" as="geometry">
                        <mxRectangle width="40" height="35" as="alternateBounds"/>
                    </mxGeometry>
                </mxCell>
                <mxCell id="422" value="" style="shape=partialRectangle;html=1;whiteSpace=wrap;connectable=0;overflow=hidden;fillColor=none;top=0;left=0;bottom=0;right=0;pointerEvents=1;fontSize=24;" parent="417" vertex="1">
                    <mxGeometry x="160" width="40" height="35" as="geometry">
                        <mxRectangle width="40" height="35" as="alternateBounds"/>
                    </mxGeometry>
                </mxCell>
            </root>
        </mxGraphModel>
    </diagram>
</mxfile>